<svg width="312" height="260" viewBox="0 0 312 260" fill="none" xmlns="http://www.w3.org/2000/svg">
<rect x="0.5" y="0.5" width="310.327" height="259" rx="3.5" fill="white" stroke="#C4C4C4"/>
<rect x="103" y="122" width="28.528" height="21.8487" rx="2" fill="#144480"/>
<path d="M191.829 34.3299V33.0003L194.936 30.1239C195.2 29.8682 195.421 29.6381 195.6 29.4336C195.782 29.229 195.92 29.0288 196.014 28.8327C196.107 28.6339 196.154 28.4194 196.154 28.1893C196.154 27.9336 196.096 27.7134 195.98 27.5288C195.863 27.3413 195.704 27.1978 195.502 27.0984C195.301 26.9961 195.072 26.945 194.816 26.945C194.549 26.945 194.316 26.9989 194.117 27.1069C193.919 27.2148 193.765 27.3697 193.657 27.5714C193.549 27.7731 193.495 28.0131 193.495 28.2915H191.744C191.744 27.7205 191.873 27.2248 192.132 26.8043C192.39 26.3839 192.752 26.0586 193.218 25.8285C193.684 25.5984 194.221 25.4833 194.829 25.4833C195.454 25.4833 195.998 25.5941 196.461 25.8157C196.927 26.0344 197.289 26.3384 197.548 26.7276C197.806 27.1168 197.936 27.5628 197.936 28.0657C197.936 28.3952 197.87 28.7205 197.74 29.0415C197.612 29.3626 197.383 29.7191 197.054 30.1111C196.724 30.5003 196.259 30.9677 195.66 31.5131L194.386 32.7617V32.8214H198.051V34.3299H191.829ZM202.81 34.5217C202.077 34.5188 201.446 34.3384 200.918 33.9805C200.392 33.6225 199.987 33.104 199.703 32.4251C199.422 31.7461 199.283 30.9293 199.285 29.9748C199.285 29.0231 199.426 28.212 199.707 27.5415C199.991 26.8711 200.396 26.3611 200.922 26.0117C201.45 25.6594 202.079 25.4833 202.81 25.4833C203.54 25.4833 204.168 25.6594 204.693 26.0117C205.221 26.364 205.628 26.8753 205.912 27.5458C206.196 28.2134 206.337 29.0231 206.334 29.9748C206.334 30.9322 206.192 31.7503 205.908 32.4293C205.626 33.1083 205.223 33.6268 204.697 33.9847C204.172 34.3427 203.543 34.5217 202.81 34.5217ZM202.81 32.9918C203.31 32.9918 203.709 32.7404 204.007 32.2376C204.305 31.7347 204.453 30.9805 204.45 29.9748C204.45 29.3128 204.382 28.7617 204.246 28.3214C204.112 27.881 203.922 27.5501 203.675 27.3285C203.43 27.1069 203.142 26.9961 202.81 26.9961C202.312 26.9961 201.915 27.2447 201.616 27.7418C201.318 28.239 201.168 28.9833 201.165 29.9748C201.165 30.6452 201.231 31.2049 201.365 31.6538C201.501 32.0998 201.693 32.435 201.94 32.6594C202.187 32.881 202.477 32.9918 202.81 32.9918ZM207.649 34.3299V33.0003L210.756 30.1239C211.02 29.8682 211.242 29.6381 211.421 29.4336C211.603 29.229 211.74 29.0288 211.834 28.8327C211.928 28.6339 211.975 28.4194 211.975 28.1893C211.975 27.9336 211.916 27.7134 211.8 27.5288C211.683 27.3413 211.524 27.1978 211.323 27.0984C211.121 26.9961 210.892 26.945 210.637 26.945C210.37 26.945 210.137 26.9989 209.938 27.1069C209.739 27.2148 209.585 27.3697 209.478 27.5714C209.37 27.7731 209.316 28.0131 209.316 28.2915H207.564C207.564 27.7205 207.693 27.2248 207.952 26.8043C208.21 26.3839 208.573 26.0586 209.039 25.8285C209.505 25.5984 210.041 25.4833 210.649 25.4833C211.274 25.4833 211.818 25.5941 212.282 25.8157C212.747 26.0344 213.11 26.3384 213.368 26.7276C213.627 27.1168 213.756 27.5628 213.756 28.0657C213.756 28.3952 213.691 28.7205 213.56 29.0415C213.432 29.3626 213.203 29.7191 212.874 30.1111C212.544 30.5003 212.08 30.9677 211.48 31.5131L210.206 32.7617V32.8214H213.871V34.3299H207.649ZM214.888 32.7958V31.3427L218.532 25.6026H219.785V27.614H219.043L216.746 31.2489V31.3171H221.924V32.7958H214.888ZM219.077 34.3299V32.3526L219.111 31.7092V25.6026H220.842V34.3299H219.077Z" fill="#252525"/>
<path d="M30.5313 70H27.6953V62H30.5547C31.3594 62 32.0521 62.1602 32.6328 62.4805C33.2135 62.7982 33.6602 63.2552 33.9727 63.8516C34.2878 64.4479 34.4453 65.1615 34.4453 65.9922C34.4453 66.8255 34.2878 67.5417 33.9727 68.1406C33.6602 68.7396 33.2109 69.1992 32.625 69.5195C32.0417 69.8398 31.3438 70 30.5313 70ZM29.3867 68.5508H30.4609C30.9609 68.5508 31.3815 68.4622 31.7227 68.2852C32.0664 68.1055 32.3242 67.8281 32.4961 67.4531C32.6706 67.0755 32.7578 66.5885 32.7578 65.9922C32.7578 65.401 32.6706 64.918 32.4961 64.543C32.3242 64.168 32.0677 63.8919 31.7266 63.7148C31.3854 63.5378 30.9648 63.4492 30.4648 63.4492H29.3867V68.5508ZM38.3779 70.1172C37.7712 70.1172 37.2464 69.9883 36.8037 69.7305C36.3636 69.4701 36.0238 69.1081 35.7842 68.6445C35.5446 68.1784 35.4248 67.638 35.4248 67.0234C35.4248 66.4036 35.5446 65.862 35.7842 65.3984C36.0238 64.9323 36.3636 64.5703 36.8037 64.3125C37.2464 64.0521 37.7712 63.9219 38.3779 63.9219C38.9847 63.9219 39.5081 64.0521 39.9482 64.3125C40.391 64.5703 40.7321 64.9323 40.9717 65.3984C41.2113 65.862 41.3311 66.4036 41.3311 67.0234C41.3311 67.638 41.2113 68.1784 40.9717 68.6445C40.7321 69.1081 40.391 69.4701 39.9482 69.7305C39.5081 69.9883 38.9847 70.1172 38.3779 70.1172ZM38.3857 68.8281C38.6618 68.8281 38.8923 68.75 39.0771 68.5938C39.262 68.4349 39.4014 68.2187 39.4951 67.9453C39.5915 67.6719 39.6396 67.3607 39.6396 67.0117C39.6396 66.6628 39.5915 66.3516 39.4951 66.0781C39.4014 65.8047 39.262 65.5885 39.0771 65.4297C38.8923 65.2708 38.6618 65.1914 38.3857 65.1914C38.1071 65.1914 37.8727 65.2708 37.6826 65.4297C37.4951 65.5885 37.3532 65.8047 37.2568 66.0781C37.1631 66.3516 37.1162 66.6628 37.1162 67.0117C37.1162 67.3607 37.1631 67.6719 37.2568 67.9453C37.3532 68.2187 37.4951 68.4349 37.6826 68.5938C37.8727 68.75 38.1071 68.8281 38.3857 68.8281ZM42.4131 70V64H43.999V65.0586H44.0693C44.1943 64.707 44.4027 64.4297 44.6943 64.2266C44.986 64.0234 45.335 63.9219 45.7412 63.9219C46.1527 63.9219 46.5029 64.0247 46.792 64.2305C47.0811 64.4336 47.2738 64.7096 47.3701 65.0586H47.4326C47.555 64.7148 47.7764 64.4401 48.0967 64.2344C48.4196 64.026 48.8011 63.9219 49.2412 63.9219C49.8011 63.9219 50.2555 64.1003 50.6045 64.457C50.9561 64.8112 51.1318 65.3138 51.1318 65.9648V70H49.4717V66.293C49.4717 65.9596 49.3831 65.7096 49.2061 65.543C49.029 65.3763 48.8076 65.293 48.542 65.293C48.2399 65.293 48.0042 65.3893 47.835 65.582C47.6657 65.7721 47.5811 66.0234 47.5811 66.3359V70H45.9678V66.2578C45.9678 65.9635 45.8831 65.7292 45.7139 65.5547C45.5472 65.3802 45.3271 65.293 45.0537 65.293C44.8688 65.293 44.7021 65.3398 44.5537 65.4336C44.4079 65.5247 44.292 65.6536 44.2061 65.8203C44.1201 65.9844 44.0771 66.1771 44.0771 66.3984V70H42.4131Z" fill="#252525"/>
<path d="M189.715 67.2188H191.152L191.875 68.1484L192.586 68.9766L193.926 70.6563H192.348L191.426 69.5234L190.953 68.8516L189.715 67.2188ZM194.047 66C194.047 66.8724 193.882 67.6146 193.551 68.2266C193.223 68.8385 192.775 69.306 192.207 69.6289C191.642 69.9492 191.007 70.1094 190.301 70.1094C189.59 70.1094 188.952 69.9479 188.387 69.625C187.822 69.3021 187.375 68.8346 187.047 68.2227C186.719 67.6107 186.555 66.8698 186.555 66C186.555 65.1276 186.719 64.3854 187.047 63.7734C187.375 63.1615 187.822 62.6953 188.387 62.375C188.952 62.0521 189.59 61.8906 190.301 61.8906C191.007 61.8906 191.642 62.0521 192.207 62.375C192.775 62.6953 193.223 63.1615 193.551 63.7734C193.882 64.3854 194.047 65.1276 194.047 66ZM192.332 66C192.332 65.4349 192.247 64.9583 192.078 64.5703C191.911 64.1823 191.676 63.888 191.371 63.6875C191.066 63.487 190.71 63.3867 190.301 63.3867C189.892 63.3867 189.535 63.487 189.23 63.6875C188.926 63.888 188.689 64.1823 188.52 64.5703C188.353 64.9583 188.27 65.4349 188.27 66C188.27 66.5651 188.353 67.0417 188.52 67.4297C188.689 67.8177 188.926 68.112 189.23 68.3125C189.535 68.513 189.892 68.6133 190.301 68.6133C190.71 68.6133 191.066 68.513 191.371 68.3125C191.676 68.112 191.911 67.8177 192.078 67.4297C192.247 67.0417 192.332 66.5651 192.332 66ZM199.116 67.4453V64H200.78V70H199.183V68.9102H199.12C198.985 69.2617 198.759 69.5443 198.444 69.7578C198.132 69.9714 197.75 70.0781 197.3 70.0781C196.899 70.0781 196.546 69.987 196.241 69.8047C195.937 69.6224 195.698 69.3633 195.526 69.0273C195.357 68.6914 195.271 68.2891 195.269 67.8203V64H196.933V67.5234C196.935 67.8776 197.03 68.1576 197.218 68.3633C197.405 68.569 197.657 68.6719 197.972 68.6719C198.172 68.6719 198.36 68.6263 198.534 68.5352C198.709 68.4414 198.849 68.3034 198.956 68.1211C199.065 67.9388 199.119 67.7135 199.116 67.4453ZM202.111 70V64H203.775V70H202.111ZM202.947 63.2266C202.7 63.2266 202.488 63.1445 202.311 62.9805C202.136 62.8138 202.049 62.6146 202.049 62.3828C202.049 62.1536 202.136 61.957 202.311 61.793C202.488 61.6263 202.7 61.543 202.947 61.543C203.195 61.543 203.406 61.6263 203.58 61.793C203.757 61.957 203.846 62.1536 203.846 62.3828C203.846 62.6146 203.757 62.8138 203.58 62.9805C203.406 63.1445 203.195 63.2266 202.947 63.2266Z" fill="#252525"/>
<path d="M109.391 63.3945V62H115.961V63.3945H113.512V70H111.84V63.3945H109.391ZM118.876 70.1172C118.259 70.1172 117.728 69.9922 117.282 69.7422C116.84 69.4896 116.498 69.1328 116.259 68.6719C116.019 68.2083 115.899 67.6602 115.899 67.0273C115.899 66.4102 116.019 65.8685 116.259 65.4023C116.498 64.9362 116.836 64.5729 117.271 64.3125C117.708 64.0521 118.221 63.9219 118.81 63.9219C119.205 63.9219 119.574 63.9857 119.915 64.1133C120.259 64.2383 120.558 64.4271 120.813 64.6797C121.071 64.9323 121.272 65.25 121.415 65.6328C121.558 66.013 121.63 66.4583 121.63 66.9687V67.4258H116.563V66.3945H120.063C120.063 66.1549 120.011 65.9427 119.907 65.7578C119.803 65.5729 119.659 65.4284 119.474 65.3242C119.291 65.2174 119.079 65.1641 118.837 65.1641C118.584 65.1641 118.36 65.2227 118.165 65.3398C117.972 65.4544 117.821 65.6094 117.712 65.8047C117.603 65.9974 117.547 66.2122 117.544 66.4492V67.4297C117.544 67.7266 117.599 67.9831 117.708 68.1992C117.82 68.4154 117.978 68.582 118.181 68.6992C118.384 68.8164 118.625 68.875 118.903 68.875C119.088 68.875 119.257 68.849 119.411 68.7969C119.565 68.7448 119.696 68.6667 119.806 68.5625C119.915 68.4583 119.998 68.3307 120.056 68.1797L121.595 68.2812C121.517 68.651 121.356 68.974 121.114 69.25C120.875 69.5234 120.565 69.737 120.185 69.8906C119.807 70.0417 119.371 70.1172 118.876 70.1172ZM122.716 70V64H124.329V65.0469H124.392C124.501 64.6745 124.685 64.3932 124.942 64.2031C125.2 64.0104 125.497 63.9141 125.833 63.9141C125.916 63.9141 126.006 63.9193 126.103 63.9297C126.199 63.9401 126.284 63.9544 126.356 63.9727V65.4492C126.278 65.4258 126.17 65.4049 126.032 65.3867C125.894 65.3685 125.768 65.3594 125.653 65.3594C125.409 65.3594 125.19 65.4128 124.997 65.5195C124.807 65.6237 124.656 65.7695 124.544 65.957C124.435 66.1445 124.38 66.3607 124.38 66.6055V70H122.716Z" fill="#252525"/>
<path d="M272.035 64.3008C272.004 63.9857 271.87 63.7409 271.633 63.5664C271.396 63.3919 271.074 63.3047 270.668 63.3047C270.392 63.3047 270.159 63.3437 269.969 63.4219C269.779 63.4974 269.633 63.6029 269.531 63.7383C269.432 63.8737 269.383 64.0273 269.383 64.1992C269.378 64.3424 269.408 64.4674 269.473 64.5742C269.54 64.681 269.633 64.7734 269.75 64.8516C269.867 64.9271 270.003 64.9935 270.156 65.0508C270.31 65.1055 270.474 65.1523 270.648 65.1914L271.367 65.3633C271.716 65.4414 272.036 65.5456 272.328 65.6758C272.62 65.806 272.872 65.9661 273.086 66.1562C273.299 66.3464 273.465 66.5703 273.582 66.8281C273.702 67.0859 273.763 67.3815 273.766 67.7148C273.763 68.2044 273.638 68.6289 273.391 68.9883C273.146 69.3451 272.792 69.6224 272.328 69.8203C271.867 70.0156 271.311 70.1133 270.66 70.1133C270.014 70.1133 269.452 70.0143 268.973 69.8164C268.496 69.6185 268.124 69.3255 267.855 68.9375C267.59 68.5469 267.451 68.0638 267.437 67.4883H269.074C269.092 67.7565 269.169 67.9805 269.305 68.1602C269.443 68.3372 269.626 68.4714 269.855 68.5625C270.087 68.651 270.349 68.6953 270.641 68.6953C270.927 68.6953 271.176 68.6536 271.387 68.5703C271.6 68.487 271.766 68.3711 271.883 68.2227C272 68.0742 272.059 67.9036 272.059 67.7109C272.059 67.5312 272.005 67.3802 271.898 67.2578C271.794 67.1354 271.641 67.0312 271.438 66.9453C271.237 66.8594 270.991 66.7812 270.699 66.7109L269.828 66.4922C269.154 66.3281 268.621 66.0716 268.23 65.7227C267.84 65.3737 267.646 64.9036 267.648 64.3125C267.646 63.8281 267.775 63.4049 268.035 63.043C268.298 62.681 268.659 62.3984 269.117 62.1953C269.576 61.9922 270.096 61.8906 270.68 61.8906C271.273 61.8906 271.792 61.9922 272.234 62.1953C272.68 62.3984 273.026 62.681 273.273 63.043C273.521 63.4049 273.648 63.8242 273.656 64.3008H272.035ZM276.583 70.1133C276.2 70.1133 275.859 70.0469 275.56 69.9141C275.26 69.7786 275.023 69.5794 274.849 69.3164C274.677 69.0508 274.591 68.7201 274.591 68.3242C274.591 67.9909 274.652 67.7109 274.774 67.4844C274.897 67.2578 275.063 67.0755 275.274 66.9375C275.485 66.7995 275.725 66.6953 275.993 66.625C276.264 66.5547 276.548 66.5052 276.845 66.4766C277.194 66.4401 277.475 66.4062 277.688 66.375C277.902 66.3411 278.057 66.2917 278.153 66.2266C278.25 66.1615 278.298 66.0651 278.298 65.9375V65.9141C278.298 65.6667 278.22 65.4753 278.063 65.3398C277.91 65.2044 277.691 65.1367 277.407 65.1367C277.108 65.1367 276.869 65.2031 276.692 65.3359C276.515 65.4661 276.398 65.6302 276.341 65.8281L274.802 65.7031C274.88 65.3385 275.034 65.0234 275.263 64.7578C275.492 64.4896 275.787 64.2839 276.149 64.1406C276.514 63.9948 276.936 63.9219 277.415 63.9219C277.748 63.9219 278.067 63.9609 278.372 64.0391C278.679 64.1172 278.951 64.2383 279.188 64.4023C279.428 64.5664 279.617 64.7773 279.755 65.0352C279.893 65.2904 279.962 65.5964 279.962 65.9531V70H278.384V69.168H278.337C278.241 69.3555 278.112 69.5208 277.95 69.6641C277.789 69.8047 277.595 69.9154 277.368 69.9961C277.142 70.0742 276.88 70.1133 276.583 70.1133ZM277.06 68.9648C277.304 68.9648 277.521 68.9167 277.708 68.8203C277.896 68.7214 278.043 68.5885 278.149 68.4219C278.256 68.2552 278.31 68.0664 278.31 67.8555V67.2188C278.257 67.2526 278.186 67.2839 278.095 67.3125C278.006 67.3385 277.906 67.3633 277.794 67.3867C277.682 67.4076 277.57 67.4271 277.458 67.4453C277.346 67.4609 277.244 67.4753 277.153 67.4883C276.958 67.5169 276.787 67.5625 276.642 67.625C276.496 67.6875 276.382 67.7721 276.302 67.8789C276.221 67.9831 276.181 68.1133 276.181 68.2695C276.181 68.4961 276.263 68.6693 276.427 68.7891C276.593 68.9062 276.804 68.9648 277.06 68.9648ZM281.284 70V62H282.948V65.0078H282.999C283.072 64.8464 283.177 64.6823 283.315 64.5156C283.456 64.3464 283.638 64.2057 283.862 64.0938C284.089 63.9792 284.37 63.9219 284.706 63.9219C285.144 63.9219 285.547 64.0365 285.917 64.2656C286.287 64.4922 286.582 64.8346 286.804 65.293C287.025 65.7487 287.136 66.3203 287.136 67.0078C287.136 67.6771 287.028 68.2422 286.812 68.7031C286.598 69.1615 286.306 69.5091 285.937 69.7461C285.569 69.9805 285.158 70.0977 284.702 70.0977C284.379 70.0977 284.104 70.0443 283.878 69.9375C283.654 69.8307 283.47 69.6966 283.327 69.5352C283.184 69.3711 283.075 69.2057 282.999 69.0391H282.925V70H281.284ZM282.913 67C282.913 67.3568 282.963 67.668 283.062 67.9336C283.16 68.1992 283.304 68.4062 283.491 68.5547C283.679 68.7005 283.907 68.7734 284.175 68.7734C284.446 68.7734 284.675 68.6992 284.862 68.5508C285.05 68.3997 285.192 68.1914 285.288 67.9258C285.387 67.6576 285.437 67.349 285.437 67C285.437 66.6536 285.388 66.349 285.292 66.0859C285.196 65.8229 285.054 65.6172 284.866 65.4687C284.679 65.3203 284.448 65.2461 284.175 65.2461C283.904 65.2461 283.675 65.3177 283.487 65.4609C283.302 65.6042 283.16 65.8073 283.062 66.0703C282.963 66.3333 282.913 66.6432 282.913 67Z" fill="#252525"/>
<path d="M195.142 164.681V172.681H193.451V166.286H193.404L191.572 167.435V165.935L193.552 164.681H195.142ZM200.114 172.79C199.702 172.787 199.305 172.718 198.922 172.583C198.542 172.448 198.201 172.228 197.899 171.923C197.597 171.618 197.357 171.215 197.18 170.712C197.006 170.209 196.919 169.592 196.919 168.86C196.921 168.188 196.998 167.588 197.149 167.06C197.303 166.528 197.521 166.078 197.805 165.708C198.092 165.338 198.434 165.057 198.833 164.864C199.231 164.669 199.678 164.571 200.172 164.571C200.706 164.571 201.178 164.675 201.587 164.884C201.995 165.09 202.324 165.369 202.571 165.724C202.821 166.078 202.972 166.475 203.024 166.915H201.356C201.291 166.636 201.154 166.418 200.946 166.259C200.738 166.1 200.48 166.021 200.172 166.021C199.652 166.021 199.256 166.247 198.985 166.7C198.717 167.153 198.58 167.769 198.575 168.548H198.63C198.749 168.311 198.911 168.109 199.114 167.942C199.32 167.773 199.553 167.644 199.813 167.556C200.076 167.465 200.353 167.419 200.645 167.419C201.119 167.419 201.541 167.531 201.911 167.755C202.281 167.976 202.572 168.281 202.786 168.669C202.999 169.057 203.106 169.501 203.106 170.001C203.106 170.543 202.98 171.024 202.727 171.446C202.477 171.868 202.127 172.199 201.676 172.438C201.228 172.675 200.708 172.793 200.114 172.79ZM200.106 171.462C200.366 171.462 200.6 171.399 200.805 171.274C201.011 171.149 201.172 170.98 201.29 170.767C201.407 170.553 201.465 170.313 201.465 170.048C201.465 169.782 201.407 169.544 201.29 169.333C201.175 169.122 201.016 168.954 200.813 168.829C200.61 168.704 200.378 168.642 200.118 168.642C199.922 168.642 199.741 168.678 199.575 168.751C199.411 168.824 199.266 168.925 199.141 169.056C199.019 169.186 198.922 169.337 198.852 169.509C198.782 169.678 198.747 169.859 198.747 170.052C198.747 170.31 198.805 170.545 198.922 170.759C199.042 170.972 199.204 171.143 199.407 171.271C199.613 171.398 199.846 171.462 200.106 171.462Z" fill="#252525"/>
<path d="M195.142 128.63V136.63H193.451V130.236H193.404L191.572 131.384V129.884L193.552 128.63H195.142ZM200.524 128.63V136.63H198.833V130.236H198.786L196.954 131.384V129.884L198.934 128.63H200.524Z" fill="#252525"/>
<path d="M191.662 207.639V206.42L194.509 203.783C194.752 203.549 194.955 203.338 195.119 203.15C195.285 202.963 195.412 202.779 195.498 202.6C195.584 202.417 195.627 202.221 195.627 202.01C195.627 201.775 195.573 201.574 195.466 201.404C195.36 201.232 195.214 201.101 195.029 201.01C194.844 200.916 194.634 200.869 194.4 200.869C194.155 200.869 193.942 200.919 193.759 201.018C193.577 201.116 193.436 201.258 193.338 201.443C193.239 201.628 193.189 201.848 193.189 202.103H191.584C191.584 201.58 191.702 201.126 191.939 200.74C192.176 200.355 192.508 200.057 192.935 199.846C193.362 199.635 193.854 199.529 194.412 199.529C194.985 199.529 195.483 199.631 195.908 199.834C196.335 200.034 196.667 200.313 196.904 200.67C197.141 201.027 197.259 201.435 197.259 201.896C197.259 202.199 197.2 202.497 197.08 202.791C196.963 203.085 196.753 203.412 196.451 203.771C196.149 204.128 195.723 204.557 195.173 205.057L194.005 206.201V206.256H197.365V207.639H191.662ZM201.547 207.748C200.964 207.748 200.445 207.648 199.989 207.447C199.536 207.244 199.178 206.965 198.915 206.611C198.654 206.254 198.52 205.843 198.512 205.377H200.215C200.226 205.572 200.29 205.744 200.407 205.893C200.527 206.038 200.686 206.152 200.883 206.232C201.081 206.313 201.304 206.353 201.551 206.353C201.809 206.353 202.037 206.308 202.235 206.217C202.433 206.126 202.588 205.999 202.7 205.838C202.812 205.676 202.868 205.49 202.868 205.279C202.868 205.066 202.808 204.877 202.688 204.713C202.571 204.546 202.402 204.416 202.18 204.322C201.962 204.228 201.701 204.182 201.399 204.182H200.653V202.939H201.399C201.654 202.939 201.88 202.895 202.075 202.807C202.273 202.718 202.426 202.596 202.536 202.439C202.645 202.281 202.7 202.096 202.7 201.885C202.7 201.684 202.652 201.508 202.555 201.357C202.462 201.204 202.329 201.084 202.157 200.998C201.988 200.912 201.79 200.869 201.563 200.869C201.334 200.869 201.124 200.911 200.934 200.994C200.744 201.075 200.592 201.191 200.477 201.342C200.363 201.493 200.301 201.67 200.294 201.873H198.672C198.68 201.412 198.812 201.006 199.067 200.654C199.322 200.303 199.666 200.028 200.098 199.83C200.533 199.629 201.024 199.529 201.571 199.529C202.123 199.529 202.606 199.629 203.02 199.83C203.434 200.031 203.756 200.301 203.985 200.643C204.217 200.981 204.331 201.361 204.329 201.783C204.331 202.231 204.192 202.605 203.911 202.904C203.632 203.204 203.269 203.394 202.821 203.475V203.537C203.409 203.613 203.857 203.817 204.165 204.15C204.475 204.481 204.628 204.895 204.626 205.393C204.628 205.848 204.497 206.253 204.231 206.607C203.968 206.962 203.605 207.24 203.141 207.443C202.678 207.646 202.146 207.748 201.547 207.748Z" fill="#252525"/>
<path d="M194.619 239.429C194.035 239.429 193.516 239.328 193.06 239.128C192.607 238.925 192.249 238.646 191.986 238.292C191.726 237.935 191.591 237.524 191.584 237.058H193.287C193.297 237.253 193.361 237.425 193.478 237.573C193.598 237.719 193.757 237.832 193.955 237.913C194.153 237.994 194.375 238.034 194.623 238.034C194.88 238.034 195.108 237.989 195.306 237.897C195.504 237.806 195.659 237.68 195.771 237.518C195.883 237.357 195.939 237.171 195.939 236.96C195.939 236.746 195.879 236.558 195.759 236.393C195.642 236.227 195.473 236.097 195.252 236.003C195.033 235.909 194.772 235.862 194.47 235.862H193.724V234.62H194.47C194.726 234.62 194.951 234.576 195.146 234.487C195.344 234.399 195.498 234.276 195.607 234.12C195.716 233.961 195.771 233.776 195.771 233.565C195.771 233.365 195.723 233.189 195.627 233.038C195.533 232.884 195.4 232.765 195.228 232.679C195.059 232.593 194.861 232.55 194.634 232.55C194.405 232.55 194.196 232.591 194.005 232.675C193.815 232.755 193.663 232.871 193.548 233.022C193.434 233.173 193.373 233.351 193.365 233.554H191.744C191.752 233.093 191.883 232.686 192.138 232.335C192.394 231.983 192.737 231.709 193.17 231.511C193.604 231.31 194.095 231.21 194.642 231.21C195.194 231.21 195.677 231.31 196.091 231.511C196.505 231.711 196.827 231.982 197.056 232.323C197.288 232.662 197.403 233.042 197.4 233.464C197.403 233.912 197.263 234.285 196.982 234.585C196.703 234.884 196.34 235.074 195.892 235.155V235.218C196.481 235.293 196.929 235.498 197.236 235.831C197.546 236.162 197.7 236.576 197.697 237.073C197.7 237.529 197.568 237.934 197.302 238.288C197.039 238.642 196.676 238.921 196.213 239.124C195.749 239.327 195.218 239.429 194.619 239.429ZM202.049 239.495C201.378 239.492 200.799 239.327 200.315 238.999C199.833 238.671 199.462 238.196 199.202 237.573C198.944 236.951 198.816 236.202 198.819 235.327C198.819 234.455 198.948 233.711 199.206 233.097C199.466 232.482 199.837 232.015 200.319 231.694C200.803 231.371 201.38 231.21 202.049 231.21C202.719 231.21 203.294 231.371 203.776 231.694C204.26 232.017 204.633 232.486 204.893 233.101C205.154 233.713 205.283 234.455 205.28 235.327C205.28 236.205 205.15 236.955 204.889 237.577C204.631 238.199 204.262 238.675 203.78 239.003C203.298 239.331 202.721 239.495 202.049 239.495ZM202.049 238.093C202.508 238.093 202.874 237.862 203.147 237.401C203.421 236.94 203.556 236.249 203.553 235.327C203.553 234.72 203.491 234.215 203.366 233.811C203.243 233.408 203.069 233.104 202.842 232.901C202.618 232.698 202.354 232.597 202.049 232.597C201.594 232.597 201.229 232.824 200.956 233.28C200.682 233.736 200.544 234.418 200.542 235.327C200.542 235.942 200.603 236.455 200.725 236.866C200.85 237.275 201.026 237.582 201.253 237.788C201.479 237.991 201.745 238.093 202.049 238.093Z" fill="#252525"/>
<path d="M70.1078 207.639V206.42L72.9554 203.783C73.1976 203.549 73.4008 203.338 73.5648 203.15C73.7315 202.963 73.8578 202.779 73.9437 202.6C74.0297 202.417 74.0726 202.221 74.0726 202.01C74.0726 201.775 74.0192 201.574 73.9125 201.404C73.8057 201.232 73.6599 201.101 73.475 201.01C73.2901 200.916 73.0804 200.869 72.8461 200.869C72.6013 200.869 72.3877 200.919 72.2054 201.018C72.0232 201.116 71.8825 201.258 71.7836 201.443C71.6846 201.628 71.6351 201.848 71.6351 202.103H70.0297C70.0297 201.58 70.1482 201.126 70.3851 200.74C70.6221 200.355 70.9541 200.057 71.3812 199.846C71.8083 199.635 72.3005 199.529 72.8578 199.529C73.4307 199.529 73.9294 199.631 74.3539 199.834C74.781 200.034 75.113 200.313 75.35 200.67C75.587 201.027 75.7054 201.435 75.7054 201.896C75.7054 202.199 75.6455 202.497 75.5258 202.791C75.4086 203.085 75.1989 203.412 74.8969 203.771C74.5948 204.128 74.169 204.557 73.6195 205.057L72.4515 206.201V206.256H75.8109V207.639H70.1078ZM80.1732 207.814C79.5013 207.812 78.9232 207.646 78.4388 207.318C77.9571 206.99 77.586 206.515 77.3256 205.893C77.0677 205.27 76.9401 204.521 76.9427 203.646C76.9427 202.774 77.0717 202.031 77.3295 201.416C77.5899 200.801 77.961 200.334 78.4427 200.014C78.9271 199.691 79.5039 199.529 80.1732 199.529C80.8425 199.529 81.418 199.691 81.8998 200.014C82.3842 200.337 82.7566 200.805 83.017 201.42C83.2774 202.032 83.4063 202.774 83.4037 203.646C83.4037 204.524 83.2735 205.274 83.0131 205.896C82.7552 206.519 82.3855 206.994 81.9037 207.322C81.4219 207.65 80.8451 207.814 80.1732 207.814ZM80.1732 206.412C80.6316 206.412 80.9974 206.182 81.2709 205.721C81.5443 205.26 81.6797 204.568 81.6771 203.646C81.6771 203.04 81.6146 202.534 81.4896 202.131C81.3672 201.727 81.1927 201.424 80.9662 201.221C80.7422 201.018 80.4779 200.916 80.1732 200.916C79.7175 200.916 79.3529 201.144 79.0795 201.6C78.806 202.055 78.668 202.738 78.6654 203.646C78.6654 204.261 78.7266 204.774 78.849 205.185C78.974 205.594 79.1498 205.902 79.3763 206.107C79.6029 206.31 79.8685 206.412 80.1732 206.412Z" fill="#252525"/>
<path d="M73.5883 164.681V172.681H71.8969V166.286H71.85L70.0179 167.435V165.935L71.9984 164.681H73.5883ZM78.4467 172.79C77.8633 172.79 77.3438 172.69 76.8881 172.489C76.4349 172.286 76.0769 172.007 75.8138 171.653C75.5534 171.297 75.4193 170.885 75.4115 170.419H77.1146C77.125 170.614 77.1888 170.786 77.306 170.935C77.4258 171.08 77.5847 171.194 77.7826 171.274C77.9805 171.355 78.2032 171.396 78.4506 171.396C78.7084 171.396 78.9362 171.35 79.1342 171.259C79.3321 171.168 79.487 171.041 79.599 170.88C79.711 170.718 79.767 170.532 79.767 170.321C79.767 170.108 79.7071 169.919 79.5873 169.755C79.4701 169.588 79.3008 169.458 79.0795 169.364C78.8607 169.271 78.6003 169.224 78.2982 169.224H77.5521V167.981H78.2982C78.5534 167.981 78.7787 167.937 78.974 167.849C79.1719 167.76 79.3256 167.638 79.4349 167.481C79.5443 167.323 79.599 167.138 79.599 166.927C79.599 166.726 79.5508 166.55 79.4545 166.399C79.3607 166.246 79.2279 166.126 79.056 166.04C78.8868 165.954 78.6888 165.911 78.4623 165.911C78.2331 165.911 78.0235 165.953 77.8334 166.036C77.6433 166.117 77.4909 166.233 77.3763 166.384C77.2618 166.535 77.2006 166.712 77.1927 166.915H75.5717C75.5795 166.454 75.711 166.048 75.9662 165.696C76.2214 165.345 76.5651 165.07 76.9974 164.872C77.4323 164.672 77.9232 164.571 78.4701 164.571C79.0222 164.571 79.5052 164.672 79.9193 164.872C80.3334 165.073 80.655 165.343 80.8842 165.685C81.1159 166.023 81.2305 166.403 81.2279 166.825C81.2305 167.273 81.0912 167.647 80.8099 167.946C80.5313 168.246 80.168 168.436 79.7201 168.517V168.579C80.3086 168.655 80.7566 168.859 81.0638 169.192C81.3737 169.523 81.5274 169.937 81.5248 170.435C81.5274 170.89 81.3959 171.295 81.1302 171.649C80.8672 172.004 80.5039 172.282 80.0404 172.485C79.5769 172.688 79.0456 172.79 78.4467 172.79Z" fill="#252525"/>
<path d="M75.6381 136.74C75.0365 136.74 74.5013 136.642 74.0326 136.447C73.5664 136.249 73.2006 135.979 72.9349 135.638C72.6693 135.297 72.5365 134.91 72.5365 134.478C72.5365 134.145 72.612 133.839 72.7631 133.56C72.9167 133.279 73.125 133.046 73.3881 132.861C73.6511 132.673 73.9454 132.553 74.2709 132.501V132.447C73.8438 132.361 73.4974 132.154 73.2318 131.826C72.9662 131.495 72.8334 131.111 72.8334 130.673C72.8334 130.259 72.9545 129.891 73.1967 129.568C73.4388 129.242 73.7709 128.987 74.1927 128.802C74.6172 128.615 75.099 128.521 75.6381 128.521C76.1771 128.521 76.6576 128.615 77.0795 128.802C77.5039 128.99 77.8373 129.246 78.0795 129.572C78.3217 129.895 78.4441 130.262 78.4467 130.673C78.4441 131.113 78.3086 131.497 78.0404 131.826C77.7722 132.154 77.4284 132.361 77.0092 132.447V132.501C77.3295 132.553 77.6198 132.673 77.8802 132.861C78.1433 133.046 78.3516 133.279 78.5052 133.56C78.6615 133.839 78.7409 134.145 78.7435 134.478C78.7409 134.91 78.6068 135.297 78.3412 135.638C78.0756 135.979 77.7084 136.249 77.2396 136.447C76.7735 136.642 76.2396 136.74 75.6381 136.74ZM75.6381 135.497C75.9063 135.497 76.1407 135.449 76.3412 135.353C76.5417 135.254 76.698 135.119 76.8099 134.947C76.9245 134.772 76.9818 134.572 76.9818 134.345C76.9818 134.113 76.9232 133.909 76.806 133.732C76.6888 133.552 76.53 133.411 76.3295 133.31C76.1289 133.206 75.8985 133.154 75.6381 133.154C75.3802 133.154 75.1498 133.206 74.9467 133.31C74.7435 133.411 74.5834 133.552 74.4662 133.732C74.3516 133.909 74.2943 134.113 74.2943 134.345C74.2943 134.572 74.3503 134.772 74.4623 134.947C74.5743 135.119 74.7318 135.254 74.9349 135.353C75.1381 135.449 75.3724 135.497 75.6381 135.497ZM75.6381 131.923C75.862 131.923 76.0612 131.878 76.2357 131.786C76.4102 131.695 76.5469 131.569 76.6459 131.408C76.7448 131.246 76.7943 131.06 76.7943 130.849C76.7943 130.641 76.7448 130.458 76.6459 130.302C76.5469 130.143 76.4115 130.02 76.2396 129.931C76.0677 129.84 75.8672 129.794 75.6381 129.794C75.4115 129.794 75.211 129.84 75.0365 129.931C74.862 130.02 74.7253 130.143 74.6263 130.302C74.53 130.458 74.4818 130.641 74.4818 130.849C74.4818 131.06 74.5313 131.246 74.6302 131.408C74.7292 131.569 74.8659 131.695 75.0404 131.786C75.2149 131.878 75.4141 131.923 75.6381 131.923Z" fill="#252525"/>
<path d="M70.1078 239.319V238.101L72.9554 235.464C73.1976 235.229 73.4008 235.018 73.5648 234.831C73.7315 234.643 73.8578 234.46 73.9437 234.28C74.0297 234.098 74.0726 233.901 74.0726 233.69C74.0726 233.456 74.0192 233.254 73.9125 233.085C73.8057 232.913 73.6599 232.782 73.475 232.69C73.2901 232.597 73.0804 232.55 72.8461 232.55C72.6013 232.55 72.3877 232.599 72.2054 232.698C72.0232 232.797 71.8825 232.939 71.7836 233.124C71.6846 233.309 71.6351 233.529 71.6351 233.784H70.0297C70.0297 233.261 70.1482 232.806 70.3851 232.421C70.6221 232.035 70.9541 231.737 71.3812 231.526C71.8083 231.315 72.3005 231.21 72.8578 231.21C73.4307 231.21 73.9294 231.311 74.3539 231.515C74.781 231.715 75.113 231.994 75.35 232.351C75.587 232.707 75.7054 233.116 75.7054 233.577C75.7054 233.879 75.6455 234.177 75.5258 234.472C75.4086 234.766 75.1989 235.093 74.8969 235.452C74.5948 235.809 74.169 236.237 73.6195 236.737L72.4515 237.882V237.936H75.8109V239.319H70.1078ZM77.3529 239.319L80.6693 232.757V232.702H76.806V231.319H82.4193V232.722L79.099 239.319H77.3529Z" fill="#252525"/>
<path d="M33.8972 199.639V207.639H32.2058V201.244H32.1589L30.3269 202.393V200.893L32.3074 199.639H33.8972ZM38.6931 199.529C39.1046 199.529 39.5004 199.598 39.8806 199.736C40.2634 199.874 40.6046 200.094 40.9041 200.396C41.2061 200.699 41.4444 201.1 41.6189 201.6C41.796 202.097 41.8858 202.708 41.8884 203.432C41.8884 204.111 41.8116 204.718 41.658 205.252C41.5069 205.783 41.2895 206.235 41.0056 206.607C40.7218 206.98 40.3793 207.264 39.9783 207.459C39.5772 207.652 39.1293 207.748 38.6345 207.748C38.1007 207.748 37.6293 207.645 37.2205 207.439C36.8116 207.231 36.4822 206.949 36.2322 206.592C35.9848 206.232 35.835 205.829 35.783 205.381H37.4509C37.516 205.672 37.6528 205.899 37.8611 206.06C38.0694 206.219 38.3272 206.299 38.6345 206.299C39.1554 206.299 39.5512 206.072 39.822 205.619C40.0929 205.163 40.2296 204.54 40.2322 203.748H40.1775C40.0577 203.982 39.8962 204.184 39.6931 204.353C39.49 204.52 39.2569 204.649 38.9939 204.74C38.7335 204.831 38.4561 204.877 38.1619 204.877C37.6905 204.877 37.2699 204.766 36.9001 204.545C36.5304 204.324 36.2387 204.019 36.0251 203.631C35.8116 203.243 35.7048 202.8 35.7048 202.303C35.7022 201.766 35.8259 201.288 36.0759 200.869C36.3259 200.45 36.6749 200.122 37.1228 199.885C37.5733 199.645 38.0968 199.527 38.6931 199.529ZM38.7048 200.857C38.4418 200.857 38.2074 200.92 38.0017 201.045C37.7986 201.17 37.6371 201.338 37.5173 201.549C37.4001 201.76 37.3429 201.995 37.3455 202.256C37.3455 202.519 37.4028 202.756 37.5173 202.967C37.6345 203.175 37.7934 203.342 37.9939 203.467C38.197 203.589 38.4288 203.65 38.6892 203.65C38.8845 203.65 39.0655 203.614 39.2322 203.541C39.3988 203.468 39.5434 203.368 39.6658 203.24C39.7908 203.11 39.8884 202.96 39.9587 202.791C40.0291 202.622 40.0642 202.442 40.0642 202.252C40.0616 201.999 40.0017 201.768 39.8845 201.557C39.7673 201.346 39.6059 201.176 39.4001 201.049C39.1944 200.921 38.9626 200.857 38.7048 200.857Z" fill="#252525"/>
<path d="M33.8972 164.681V172.681H32.2058V166.286H32.1589L30.3269 167.435V165.935L32.3074 164.681H33.8972ZM35.7986 172.681V171.462L38.6462 168.825C38.8884 168.591 39.0916 168.38 39.2556 168.192C39.4223 168.005 39.5486 167.821 39.6345 167.642C39.7205 167.459 39.7634 167.263 39.7634 167.052C39.7634 166.817 39.71 166.616 39.6033 166.446C39.4965 166.274 39.3507 166.143 39.1658 166.052C38.9809 165.958 38.7712 165.911 38.5369 165.911C38.2921 165.911 38.0785 165.961 37.8962 166.06C37.7139 166.159 37.5733 166.3 37.4744 166.485C37.3754 166.67 37.3259 166.89 37.3259 167.146H35.7205C35.7205 166.622 35.8389 166.168 36.0759 165.782C36.3129 165.397 36.6449 165.099 37.072 164.888C37.4991 164.677 37.9913 164.571 38.5486 164.571C39.1215 164.571 39.6202 164.673 40.0447 164.876C40.4718 165.076 40.8038 165.355 41.0408 165.712C41.2778 166.069 41.3962 166.478 41.3962 166.938C41.3962 167.241 41.3363 167.539 41.2166 167.833C41.0994 168.127 40.8897 168.454 40.5876 168.813C40.2856 169.17 39.8598 169.599 39.3103 170.099L38.1423 171.243V171.298H41.5017V172.681H35.7986Z" fill="#252525"/>
<path d="M33.2791 136.63L36.5955 130.068V130.013H32.7322V128.63H38.3455V130.033L35.0251 136.63H33.2791Z" fill="#252525"/>
<path d="M33.3738 101.782C32.7904 101.782 32.2709 101.681 31.8152 101.481C31.3621 101.278 31.004 100.999 30.741 100.645C30.4806 100.288 30.3464 99.8767 30.3386 99.4105H32.0417C32.0522 99.6058 32.116 99.7777 32.2332 99.9261C32.3529 100.072 32.5118 100.185 32.7097 100.266C32.9076 100.347 33.1303 100.387 33.3777 100.387C33.6355 100.387 33.8634 100.342 34.0613 100.25C34.2592 100.159 34.4141 100.033 34.5261 99.8715C34.6381 99.71 34.6941 99.5238 34.6941 99.3129C34.6941 99.0993 34.6342 98.9105 34.5144 98.7465C34.3972 98.5798 34.2279 98.4496 34.0066 98.3558C33.7878 98.2621 33.5274 98.2152 33.2253 98.2152H32.4792V96.973H33.2253C33.4806 96.973 33.7058 96.9288 33.9011 96.8402C34.099 96.7517 34.2527 96.6293 34.3621 96.473C34.4714 96.3142 34.5261 96.1293 34.5261 95.9183C34.5261 95.7178 34.4779 95.542 34.3816 95.391C34.2878 95.2373 34.155 95.1176 33.9832 95.0316C33.8139 94.9457 33.616 94.9027 33.3894 94.9027C33.1602 94.9027 32.9506 94.9444 32.7605 95.0277C32.5704 95.1084 32.4181 95.2243 32.3035 95.3754C32.1889 95.5264 32.1277 95.7035 32.1199 95.9066H30.4988C30.5066 95.4457 30.6381 95.0394 30.8933 94.6879C31.1485 94.3363 31.4923 94.0616 31.9246 93.8636C32.3595 93.6631 32.8503 93.5629 33.3972 93.5629C33.9493 93.5629 34.4324 93.6631 34.8464 93.8636C35.2605 94.0642 35.5821 94.335 35.8113 94.6761C36.0431 95.0147 36.1576 95.3949 36.155 95.8168C36.1576 96.2647 36.0183 96.6384 35.7371 96.9379C35.4584 97.2373 35.0951 97.4274 34.6472 97.5082V97.5707C35.2358 97.6462 35.6837 97.8506 35.991 98.184C36.3009 98.5147 36.4545 98.9288 36.4519 99.4261C36.4545 99.8819 36.323 100.287 36.0574 100.641C35.7944 100.995 35.4311 101.274 34.9675 101.477C34.504 101.68 33.9727 101.782 33.3738 101.782ZM40.8044 101.848C40.1326 101.845 39.5544 101.68 39.0701 101.352C38.5883 101.024 38.2172 100.549 37.9568 99.9261C37.699 99.3038 37.5714 98.5551 37.574 97.6801C37.574 96.8077 37.7029 96.0642 37.9607 95.4496C38.2211 94.835 38.5922 94.3676 39.074 94.0472C39.5583 93.7243 40.1352 93.5629 40.8044 93.5629C41.4737 93.5629 42.0492 93.7243 42.531 94.0472C43.0154 94.3702 43.3878 94.8389 43.6482 95.4535C43.9086 96.0655 44.0375 96.8077 44.0349 97.6801C44.0349 98.5577 43.9047 99.3077 43.6443 99.9301C43.3865 100.552 43.0167 101.028 42.5349 101.356C42.0531 101.684 41.4763 101.848 40.8044 101.848ZM40.8044 100.446C41.2628 100.446 41.6287 100.215 41.9021 99.7543C42.1755 99.2933 42.311 98.6019 42.3083 97.6801C42.3083 97.0733 42.2458 96.5681 42.1208 96.1644C41.9985 95.7608 41.824 95.4574 41.5974 95.2543C41.3735 95.0511 41.1091 94.9496 40.8044 94.9496C40.3487 94.9496 39.9841 95.1774 39.7107 95.6332C39.4373 96.0889 39.2992 96.7712 39.2966 97.6801C39.2966 98.2946 39.3578 98.8077 39.4802 99.2191C39.6052 99.628 39.781 99.9353 40.0076 100.141C40.2341 100.344 40.4998 100.446 40.8044 100.446Z" fill="#B1B1B2"/>
<path d="M30.4167 239.319V238.101L33.2644 235.464C33.5066 235.229 33.7097 235.018 33.8738 234.831C34.0404 234.643 34.1667 234.46 34.2527 234.28C34.3386 234.098 34.3816 233.901 34.3816 233.69C34.3816 233.456 34.3282 233.254 34.2214 233.085C34.1147 232.913 33.9688 232.782 33.7839 232.69C33.599 232.597 33.3894 232.55 33.155 232.55C32.9102 232.55 32.6967 232.599 32.5144 232.698C32.3321 232.797 32.1915 232.939 32.0925 233.124C31.9936 233.309 31.9441 233.529 31.9441 233.784H30.3386C30.3386 233.261 30.4571 232.806 30.6941 232.421C30.9311 232.035 31.2631 231.737 31.6902 231.526C32.1173 231.315 32.6095 231.21 33.1667 231.21C33.7397 231.21 34.2384 231.311 34.6628 231.515C35.0899 231.715 35.422 231.994 35.6589 232.351C35.8959 232.707 36.0144 233.116 36.0144 233.577C36.0144 233.879 35.9545 234.177 35.8347 234.472C35.7175 234.766 35.5079 235.093 35.2058 235.452C34.9037 235.809 34.4779 236.237 33.9285 236.737L32.7605 237.882V237.936H36.1199V239.319H30.4167ZM40.4158 239.429C40.0043 239.426 39.6072 239.357 39.2244 239.222C38.8442 239.086 38.503 238.866 38.2009 238.561C37.8988 238.257 37.6593 237.853 37.4822 237.351C37.3077 236.848 37.2205 236.231 37.2205 235.499C37.2231 234.827 37.2999 234.227 37.4509 233.698C37.6046 233.167 37.8233 232.716 38.1072 232.347C38.3936 231.977 38.7361 231.696 39.1345 231.503C39.533 231.308 39.9796 231.21 40.4744 231.21C41.0082 231.21 41.4796 231.314 41.8884 231.522C42.2973 231.728 42.6254 232.008 42.8728 232.362C43.1228 232.716 43.2738 233.114 43.3259 233.554H41.658C41.5929 233.275 41.4561 233.056 41.2478 232.897C41.0395 232.739 40.7817 232.659 40.4744 232.659C39.9535 232.659 39.5577 232.886 39.2869 233.339C39.0186 233.792 38.8819 234.408 38.8767 235.186H38.9314C39.0512 234.949 39.2126 234.748 39.4158 234.581C39.6215 234.412 39.8546 234.283 40.115 234.194C40.378 234.103 40.6554 234.058 40.947 234.058C41.421 234.058 41.8429 234.17 42.2126 234.393C42.5824 234.615 42.8741 234.92 43.0876 235.308C43.3012 235.696 43.408 236.14 43.408 236.64C43.408 237.181 43.2817 237.663 43.0291 238.085C42.7791 238.507 42.4288 238.838 41.9783 239.077C41.5304 239.314 41.0095 239.431 40.4158 239.429ZM40.408 238.101C40.6684 238.101 40.9014 238.038 41.1072 237.913C41.3129 237.788 41.4744 237.619 41.5916 237.405C41.7087 237.192 41.7673 236.952 41.7673 236.686C41.7673 236.421 41.7087 236.183 41.5916 235.972C41.477 235.761 41.3181 235.593 41.115 235.468C40.9119 235.343 40.6801 235.28 40.4197 235.28C40.2244 235.28 40.0434 235.317 39.8767 235.39C39.7126 235.463 39.5681 235.564 39.4431 235.694C39.3207 235.824 39.2244 235.976 39.1541 236.147C39.0837 236.317 39.0486 236.498 39.0486 236.69C39.0486 236.948 39.1072 237.184 39.2244 237.397C39.3442 237.611 39.5056 237.782 39.7087 237.909C39.9145 238.037 40.1475 238.101 40.408 238.101Z" fill="#252525"/>
<path d="M234.833 164.681V172.681H233.142V166.286H233.095L231.263 167.435V165.935L233.243 164.681H234.833ZM237.051 172.681L240.367 166.118V166.063H236.504V164.681H242.117V166.083L238.797 172.681H237.051Z" fill="#252525"/>
<path d="M234.833 128.63V136.63H233.142V130.236H233.095L231.263 131.384V129.884L233.243 128.63H234.833ZM236.735 136.63V135.411L239.582 132.775C239.824 132.54 240.028 132.329 240.192 132.142C240.358 131.954 240.485 131.771 240.571 131.591C240.656 131.409 240.699 131.212 240.699 131.001C240.699 130.767 240.646 130.565 240.539 130.396C240.433 130.224 240.287 130.092 240.102 130.001C239.917 129.908 239.707 129.861 239.473 129.861C239.228 129.861 239.015 129.91 238.832 130.009C238.65 130.108 238.509 130.25 238.41 130.435C238.311 130.62 238.262 130.84 238.262 131.095H236.656C236.656 130.572 236.775 130.117 237.012 129.732C237.249 129.346 237.581 129.048 238.008 128.837C238.435 128.626 238.927 128.521 239.485 128.521C240.058 128.521 240.556 128.622 240.981 128.826C241.408 129.026 241.74 129.305 241.977 129.661C242.214 130.018 242.332 130.427 242.332 130.888C242.332 131.19 242.272 131.488 242.153 131.783C242.035 132.077 241.826 132.404 241.524 132.763C241.222 133.12 240.796 133.548 240.246 134.048L239.078 135.193V135.247H242.438V136.63H236.735Z" fill="#252525"/>
<path d="M236.821 101.782C236.268 101.782 235.776 101.68 235.344 101.477C234.914 101.274 234.573 100.994 234.321 100.637C234.068 100.28 233.936 99.8715 233.926 99.4105H235.567C235.585 99.7204 235.715 99.9717 235.957 100.164C236.199 100.357 236.487 100.453 236.821 100.453C237.086 100.453 237.321 100.395 237.524 100.278C237.729 100.158 237.89 99.9926 238.004 99.7816C238.121 99.5681 238.18 99.3233 238.18 99.0472C238.18 98.766 238.12 98.5186 238 98.3051C237.883 98.0915 237.72 97.9248 237.512 97.8051C237.304 97.6853 237.065 97.6241 236.797 97.6215C236.563 97.6215 236.335 97.6696 236.114 97.766C235.895 97.8623 235.724 97.9939 235.602 98.1605L234.098 97.891L234.477 93.6722H239.367V95.0551H235.871L235.664 97.059H235.711C235.852 96.861 236.064 96.697 236.348 96.5668C236.632 96.4366 236.949 96.3715 237.301 96.3715C237.783 96.3715 238.212 96.4847 238.59 96.7113C238.968 96.9379 239.266 97.2491 239.485 97.6449C239.703 98.0381 239.811 98.4913 239.809 99.0043C239.811 99.5433 239.686 100.023 239.434 100.442C239.184 100.858 238.834 101.187 238.383 101.426C237.935 101.663 237.414 101.782 236.821 101.782Z" fill="#252525"/>
<path d="M231.353 207.639V206.42L234.2 203.783C234.443 203.549 234.646 203.338 234.81 203.15C234.976 202.963 235.103 202.779 235.189 202.6C235.275 202.417 235.318 202.221 235.318 202.01C235.318 201.775 235.264 201.574 235.157 201.404C235.051 201.232 234.905 201.101 234.72 201.01C234.535 200.916 234.325 200.869 234.091 200.869C233.846 200.869 233.633 200.919 233.45 201.018C233.268 201.116 233.128 201.258 233.029 201.443C232.93 201.628 232.88 201.848 232.88 202.103H231.275C231.275 201.58 231.393 201.126 231.63 200.74C231.867 200.355 232.199 200.057 232.626 199.846C233.053 199.635 233.545 199.529 234.103 199.529C234.676 199.529 235.174 199.631 235.599 199.834C236.026 200.034 236.358 200.313 236.595 200.67C236.832 201.027 236.95 201.435 236.95 201.896C236.95 202.199 236.891 202.497 236.771 202.791C236.654 203.085 236.444 203.412 236.142 203.771C235.84 204.128 235.414 204.557 234.865 205.057L233.697 206.201V206.256H237.056V207.639H231.353ZM237.989 206.232V204.9L241.328 199.639H242.477V201.482H241.797L239.692 204.814V204.877H244.438V206.232H237.989ZM241.828 207.639V205.826L241.86 205.236V199.639H243.446V207.639H241.828Z" fill="#252525"/>
<path d="M234.31 239.429C233.726 239.429 233.207 239.328 232.751 239.128C232.298 238.925 231.94 238.646 231.677 238.292C231.417 237.935 231.282 237.524 231.275 237.058H232.978C232.988 237.253 233.052 237.425 233.169 237.573C233.289 237.719 233.448 237.832 233.646 237.913C233.844 237.994 234.066 238.034 234.314 238.034C234.572 238.034 234.799 237.989 234.997 237.897C235.195 237.806 235.35 237.68 235.462 237.518C235.574 237.357 235.63 237.171 235.63 236.96C235.63 236.746 235.57 236.558 235.45 236.393C235.333 236.227 235.164 236.097 234.943 236.003C234.724 235.909 234.463 235.862 234.161 235.862H233.415V234.62H234.161C234.417 234.62 234.642 234.576 234.837 234.487C235.035 234.399 235.189 234.276 235.298 234.12C235.407 233.961 235.462 233.776 235.462 233.565C235.462 233.365 235.414 233.189 235.318 233.038C235.224 232.884 235.091 232.765 234.919 232.679C234.75 232.593 234.552 232.55 234.325 232.55C234.096 232.55 233.887 232.591 233.697 232.675C233.506 232.755 233.354 232.871 233.24 233.022C233.125 233.173 233.064 233.351 233.056 233.554H231.435C231.443 233.093 231.574 232.686 231.829 232.335C232.085 231.983 232.428 231.709 232.861 231.511C233.295 231.31 233.786 231.21 234.333 231.21C234.885 231.21 235.368 231.31 235.782 231.511C236.197 231.711 236.518 231.982 236.747 232.323C236.979 232.662 237.094 233.042 237.091 233.464C237.094 233.912 236.954 234.285 236.673 234.585C236.394 234.884 236.031 235.074 235.583 235.155V235.218C236.172 235.293 236.62 235.498 236.927 235.831C237.237 236.162 237.391 236.576 237.388 237.073C237.391 237.529 237.259 237.934 236.993 238.288C236.73 238.642 236.367 238.921 235.904 239.124C235.44 239.327 234.909 239.429 234.31 239.429ZM242.084 231.319V239.319H240.393V232.925H240.346L238.514 234.073V232.573L240.494 231.319H242.084Z" fill="#252525"/>
<path d="M111.039 207.639V206.42L113.887 203.783C114.129 203.549 114.332 203.338 114.496 203.15C114.663 202.963 114.789 202.779 114.875 202.6C114.961 202.417 115.004 202.221 115.004 202.01C115.004 201.775 114.951 201.574 114.844 201.404C114.737 201.232 114.591 201.101 114.406 201.01C114.222 200.916 114.012 200.869 113.778 200.869C113.533 200.869 113.319 200.919 113.137 201.018C112.955 201.116 112.814 201.258 112.715 201.443C112.616 201.628 112.567 201.848 112.567 202.103H110.961C110.961 201.58 111.08 201.126 111.317 200.74C111.554 200.355 111.886 200.057 112.313 199.846C112.74 199.635 113.232 199.529 113.789 199.529C114.362 199.529 114.861 199.631 115.285 199.834C115.712 200.034 116.045 200.313 116.281 200.67C116.518 201.027 116.637 201.435 116.637 201.896C116.637 202.199 116.577 202.497 116.457 202.791C116.34 203.085 116.13 203.412 115.828 203.771C115.526 204.128 115.101 204.557 114.551 205.057L113.383 206.201V206.256H116.742V207.639H111.039ZM121.448 199.639V207.639H119.757V201.244H119.71L117.878 202.393V200.893L119.859 199.639H121.448Z" fill="#252525"/>
<path d="M114.52 164.681V172.681H112.828V166.286H112.781L110.949 167.435V165.935L112.93 164.681H114.52ZM116.3 171.274V169.942L119.64 164.681H120.788V166.524H120.109L118.003 169.856V169.919H122.749V171.274H116.3ZM120.14 172.681V170.868L120.171 170.278V164.681H121.757V172.681H120.14Z" fill="#252525"/>
<path d="M116.48 128.521C116.891 128.521 117.287 128.59 117.667 128.728C118.05 128.866 118.391 129.086 118.691 129.388C118.993 129.69 119.231 130.091 119.406 130.591C119.583 131.089 119.672 131.699 119.675 132.423C119.675 133.103 119.598 133.71 119.445 134.244C119.294 134.775 119.076 135.227 118.792 135.599C118.508 135.971 118.166 136.255 117.765 136.451C117.364 136.643 116.916 136.74 116.421 136.74C115.887 136.74 115.416 136.637 115.007 136.431C114.598 136.223 114.269 135.94 114.019 135.583C113.771 135.224 113.622 134.82 113.57 134.372H115.238C115.303 134.664 115.439 134.891 115.648 135.052C115.856 135.211 116.114 135.29 116.421 135.29C116.942 135.29 117.338 135.064 117.609 134.611C117.879 134.155 118.016 133.531 118.019 132.74H117.964C117.844 132.974 117.683 133.176 117.48 133.345C117.277 133.512 117.044 133.641 116.781 133.732C116.52 133.823 116.243 133.869 115.948 133.869C115.477 133.869 115.057 133.758 114.687 133.536C114.317 133.315 114.025 133.01 113.812 132.622C113.598 132.234 113.491 131.792 113.491 131.294C113.489 130.758 113.613 130.28 113.863 129.861C114.113 129.441 114.462 129.113 114.909 128.876C115.36 128.637 115.883 128.518 116.48 128.521ZM116.491 129.849C116.228 129.849 115.994 129.911 115.788 130.036C115.585 130.161 115.424 130.329 115.304 130.54C115.187 130.751 115.129 130.987 115.132 131.247C115.132 131.51 115.189 131.747 115.304 131.958C115.421 132.167 115.58 132.333 115.781 132.458C115.984 132.581 116.215 132.642 116.476 132.642C116.671 132.642 116.852 132.606 117.019 132.533C117.185 132.46 117.33 132.359 117.452 132.232C117.577 132.102 117.675 131.952 117.745 131.783C117.816 131.613 117.851 131.434 117.851 131.244C117.848 130.991 117.788 130.759 117.671 130.548C117.554 130.337 117.392 130.168 117.187 130.04C116.981 129.913 116.749 129.849 116.491 129.849Z" fill="white"/>
<path d="M116.131 101.672V100.453L118.979 97.8168C119.221 97.5824 119.424 97.3715 119.588 97.184C119.755 96.9965 119.881 96.8129 119.967 96.6332C120.053 96.4509 120.096 96.2543 120.096 96.0433C120.096 95.809 120.043 95.6071 119.936 95.4379C119.829 95.266 119.683 95.1345 119.498 95.0433C119.313 94.9496 119.104 94.9027 118.869 94.9027C118.625 94.9027 118.411 94.9522 118.229 95.0511C118.046 95.1501 117.906 95.292 117.807 95.4769C117.708 95.6618 117.658 95.8819 117.658 96.1371H116.053C116.053 95.6136 116.171 95.1592 116.408 94.7738C116.645 94.3884 116.977 94.0902 117.405 93.8793C117.832 93.6683 118.324 93.5629 118.881 93.5629C119.454 93.5629 119.953 93.6644 120.377 93.8676C120.804 94.0681 121.136 94.3467 121.373 94.7035C121.61 95.0603 121.729 95.4691 121.729 95.9301C121.729 96.2321 121.669 96.5303 121.549 96.8246C121.432 97.1189 121.222 97.4457 120.92 97.8051C120.618 98.1618 120.192 98.5902 119.643 99.0902L118.475 100.235V100.289H121.834V101.672H116.131Z" fill="#7C7C7C"/>
<path d="M78.6801 93.6722V101.672H76.9886V95.2777H76.9418L75.1097 96.4261V94.9261L77.0902 93.6722H78.6801Z" fill="#7C7C7C"/>
<path d="M191.671 100.266V98.934L195.011 93.6722H196.159V95.516H195.48L193.374 98.848V98.9105H198.12V100.266H191.671ZM195.511 101.672V99.8597L195.542 99.2699V93.6722H197.128V101.672H195.511Z" fill="#7C7C7C"/>
<path d="M111.039 239.319V238.101L113.887 235.464C114.129 235.229 114.332 235.018 114.496 234.831C114.663 234.643 114.789 234.46 114.875 234.28C114.961 234.098 115.004 233.901 115.004 233.69C115.004 233.456 114.951 233.254 114.844 233.085C114.737 232.913 114.591 232.782 114.406 232.69C114.222 232.597 114.012 232.55 113.778 232.55C113.533 232.55 113.319 232.599 113.137 232.698C112.955 232.797 112.814 232.939 112.715 233.124C112.616 233.309 112.567 233.529 112.567 233.784H110.961C110.961 233.261 111.08 232.806 111.317 232.421C111.554 232.035 111.886 231.737 112.313 231.526C112.74 231.315 113.232 231.21 113.789 231.21C114.362 231.21 114.861 231.311 115.285 231.515C115.712 231.715 116.045 231.994 116.281 232.351C116.518 232.707 116.637 233.116 116.637 233.577C116.637 233.879 116.577 234.177 116.457 234.472C116.34 234.766 116.13 235.093 115.828 235.452C115.526 235.809 115.101 236.237 114.551 236.737L113.383 237.882V237.936H116.742V239.319H111.039ZM120.952 239.429C120.351 239.429 119.816 239.331 119.347 239.136C118.881 238.938 118.515 238.668 118.249 238.327C117.984 237.986 117.851 237.599 117.851 237.167C117.851 236.834 117.926 236.528 118.077 236.249C118.231 235.968 118.439 235.735 118.702 235.55C118.965 235.362 119.26 235.242 119.585 235.19V235.136C119.158 235.05 118.812 234.843 118.546 234.515C118.281 234.184 118.148 233.8 118.148 233.362C118.148 232.948 118.269 232.58 118.511 232.257C118.753 231.931 119.085 231.676 119.507 231.491C119.932 231.304 120.413 231.21 120.952 231.21C121.491 231.21 121.972 231.304 122.394 231.491C122.818 231.679 123.152 231.935 123.394 232.261C123.636 232.584 123.758 232.951 123.761 233.362C123.758 233.802 123.623 234.186 123.355 234.515C123.087 234.843 122.743 235.05 122.323 235.136V235.19C122.644 235.242 122.934 235.362 123.195 235.55C123.458 235.735 123.666 235.968 123.82 236.249C123.976 236.528 124.055 236.834 124.058 237.167C124.055 237.599 123.921 237.986 123.656 238.327C123.39 238.668 123.023 238.938 122.554 239.136C122.088 239.331 121.554 239.429 120.952 239.429ZM120.952 238.186C121.221 238.186 121.455 238.138 121.656 238.042C121.856 237.943 122.012 237.808 122.124 237.636C122.239 237.461 122.296 237.261 122.296 237.034C122.296 236.802 122.238 236.598 122.12 236.421C122.003 236.241 121.844 236.101 121.644 235.999C121.443 235.895 121.213 235.843 120.952 235.843C120.695 235.843 120.464 235.895 120.261 235.999C120.058 236.101 119.898 236.241 119.781 236.421C119.666 236.598 119.609 236.802 119.609 237.034C119.609 237.261 119.665 237.461 119.777 237.636C119.889 237.808 120.046 237.943 120.249 238.042C120.452 238.138 120.687 238.186 120.952 238.186ZM120.952 234.612C121.176 234.612 121.376 234.567 121.55 234.476C121.725 234.384 121.861 234.258 121.96 234.097C122.059 233.935 122.109 233.749 122.109 233.538C122.109 233.33 122.059 233.147 121.96 232.991C121.861 232.832 121.726 232.709 121.554 232.62C121.382 232.529 121.182 232.483 120.952 232.483C120.726 232.483 120.525 232.529 120.351 232.62C120.176 232.709 120.04 232.832 119.941 232.991C119.844 233.147 119.796 233.33 119.796 233.538C119.796 233.749 119.846 233.935 119.945 234.097C120.044 234.258 120.18 234.384 120.355 234.476C120.529 234.567 120.728 234.612 120.952 234.612Z" fill="#252525"/>
<path d="M274.524 164.681V172.681H272.833V166.286H272.786L270.954 167.435V165.935L272.934 164.681H274.524ZM279.41 172.79C278.808 172.79 278.273 172.692 277.805 172.497C277.338 172.299 276.973 172.03 276.707 171.688C276.441 171.347 276.308 170.961 276.308 170.528C276.308 170.195 276.384 169.889 276.535 169.61C276.689 169.329 276.897 169.096 277.16 168.911C277.423 168.724 277.717 168.604 278.043 168.552V168.497C277.616 168.411 277.269 168.204 277.004 167.876C276.738 167.545 276.605 167.161 276.605 166.724C276.605 166.31 276.726 165.941 276.969 165.618C277.211 165.293 277.543 165.037 277.965 164.853C278.389 164.665 278.871 164.571 279.41 164.571C279.949 164.571 280.43 164.665 280.851 164.853C281.276 165.04 281.609 165.297 281.851 165.622C282.094 165.945 282.216 166.312 282.219 166.724C282.216 167.164 282.081 167.548 281.812 167.876C281.544 168.204 281.2 168.411 280.781 168.497V168.552C281.101 168.604 281.392 168.724 281.652 168.911C281.915 169.096 282.124 169.329 282.277 169.61C282.433 169.889 282.513 170.195 282.516 170.528C282.513 170.961 282.379 171.347 282.113 171.688C281.848 172.03 281.48 172.299 281.012 172.497C280.545 172.692 280.012 172.79 279.41 172.79ZM279.41 171.548C279.678 171.548 279.913 171.5 280.113 171.403C280.314 171.304 280.47 171.169 280.582 170.997C280.696 170.823 280.754 170.622 280.754 170.396C280.754 170.164 280.695 169.959 280.578 169.782C280.461 169.603 280.302 169.462 280.101 169.36C279.901 169.256 279.67 169.204 279.41 169.204C279.152 169.204 278.922 169.256 278.719 169.36C278.516 169.462 278.355 169.603 278.238 169.782C278.124 169.959 278.066 170.164 278.066 170.396C278.066 170.622 278.122 170.823 278.234 170.997C278.346 171.169 278.504 171.304 278.707 171.403C278.91 171.5 279.144 171.548 279.41 171.548ZM279.41 167.974C279.634 167.974 279.833 167.928 280.008 167.837C280.182 167.746 280.319 167.619 280.418 167.458C280.517 167.297 280.566 167.11 280.566 166.899C280.566 166.691 280.517 166.509 280.418 166.353C280.319 166.194 280.183 166.07 280.012 165.981C279.84 165.89 279.639 165.845 279.41 165.845C279.183 165.845 278.983 165.89 278.808 165.981C278.634 166.07 278.497 166.194 278.398 166.353C278.302 166.509 278.254 166.691 278.254 166.899C278.254 167.11 278.303 167.297 278.402 167.458C278.501 167.619 278.638 167.746 278.812 167.837C278.987 167.928 279.186 167.974 279.41 167.974Z" fill="#252525"/>
<path d="M274.524 128.63V136.63H272.833V130.236H272.786L270.954 131.384V129.884L272.934 128.63H274.524ZM279.383 136.74C278.799 136.74 278.28 136.639 277.824 136.439C277.371 136.236 277.013 135.957 276.75 135.603C276.489 135.246 276.355 134.835 276.348 134.369H278.051C278.061 134.564 278.125 134.736 278.242 134.884C278.362 135.03 278.521 135.143 278.719 135.224C278.917 135.305 279.139 135.345 279.387 135.345C279.644 135.345 279.872 135.3 280.07 135.208C280.268 135.117 280.423 134.991 280.535 134.829C280.647 134.668 280.703 134.482 280.703 134.271C280.703 134.057 280.643 133.869 280.523 133.704C280.406 133.538 280.237 133.408 280.016 133.314C279.797 133.22 279.536 133.173 279.234 133.173H278.488V131.931H279.234C279.489 131.931 279.715 131.887 279.91 131.798C280.108 131.71 280.262 131.587 280.371 131.431C280.48 131.272 280.535 131.087 280.535 130.876C280.535 130.676 280.487 130.5 280.391 130.349C280.297 130.195 280.164 130.076 279.992 129.99C279.823 129.904 279.625 129.861 279.398 129.861C279.169 129.861 278.96 129.902 278.769 129.986C278.579 130.066 278.427 130.182 278.312 130.333C278.198 130.484 278.137 130.661 278.129 130.865H276.508C276.516 130.404 276.647 129.997 276.902 129.646C277.157 129.294 277.501 129.02 277.933 128.822C278.368 128.621 278.859 128.521 279.406 128.521C279.958 128.521 280.441 128.621 280.855 128.822C281.269 129.022 281.591 129.293 281.82 129.634C282.052 129.973 282.167 130.353 282.164 130.775C282.167 131.223 282.027 131.596 281.746 131.896C281.467 132.195 281.104 132.385 280.656 132.466V132.529C281.245 132.604 281.693 132.809 282 133.142C282.31 133.473 282.463 133.887 282.461 134.384C282.463 134.84 282.332 135.245 282.066 135.599C281.803 135.953 281.44 136.232 280.976 136.435C280.513 136.638 279.982 136.74 279.383 136.74Z" fill="#252525"/>
<path d="M279.141 101.782C278.729 101.779 278.332 101.71 277.949 101.575C277.569 101.439 277.228 101.219 276.926 100.914C276.624 100.61 276.384 100.206 276.207 99.7035C276.033 99.2009 275.946 98.5837 275.946 97.8519C275.948 97.1801 276.025 96.5798 276.176 96.0511C276.33 95.5199 276.548 95.0694 276.832 94.6996C277.119 94.3298 277.461 94.0485 277.86 93.8558C278.258 93.6605 278.705 93.5629 279.199 93.5629C279.733 93.5629 280.205 93.667 280.614 93.8754C281.022 94.0811 281.351 94.361 281.598 94.7152C281.848 95.0694 281.999 95.4665 282.051 95.9066H280.383C280.318 95.628 280.181 95.4092 279.973 95.2504C279.765 95.0915 279.507 95.0121 279.199 95.0121C278.679 95.0121 278.283 95.2386 278.012 95.6918C277.744 96.1449 277.607 96.7608 277.602 97.5394H277.656C277.776 97.3024 277.938 97.1006 278.141 96.934C278.347 96.7647 278.58 96.6358 278.84 96.5472C279.103 96.4561 279.38 96.4105 279.672 96.4105C280.146 96.4105 280.568 96.5225 280.938 96.7465C281.308 96.9678 281.599 97.2725 281.813 97.6605C282.026 98.0485 282.133 98.4926 282.133 98.9926C282.133 99.5342 282.007 100.016 281.754 100.438C281.504 100.86 281.154 101.19 280.703 101.43C280.255 101.667 279.735 101.784 279.141 101.782ZM279.133 100.453C279.393 100.453 279.627 100.391 279.832 100.266C280.038 100.141 280.199 99.9717 280.317 99.7582C280.434 99.5446 280.492 99.3051 280.492 99.0394C280.492 98.7738 280.434 98.5355 280.317 98.3246C280.202 98.1136 280.043 97.9457 279.84 97.8207C279.637 97.6957 279.405 97.6332 279.145 97.6332C278.949 97.6332 278.768 97.6696 278.602 97.7426C278.438 97.8155 278.293 97.917 278.168 98.0472C278.046 98.1774 277.949 98.3285 277.879 98.5004C277.809 98.6696 277.774 98.8506 277.774 99.0433C277.774 99.3011 277.832 99.5368 277.949 99.7504C278.069 99.9639 278.231 100.134 278.434 100.262C278.64 100.39 278.873 100.453 279.133 100.453Z" fill="#252525"/>
<path d="M269.804 207.639V206.42L272.651 203.783C272.894 203.549 273.097 203.338 273.261 203.15C273.427 202.963 273.554 202.779 273.64 202.6C273.726 202.417 273.769 202.221 273.769 202.01C273.769 201.775 273.715 201.574 273.608 201.404C273.502 201.232 273.356 201.101 273.171 201.01C272.986 200.916 272.776 200.869 272.542 200.869C272.297 200.869 272.084 200.919 271.901 201.018C271.719 201.116 271.578 201.258 271.479 201.443C271.381 201.628 271.331 201.848 271.331 202.103H269.726C269.726 201.58 269.844 201.126 270.081 200.74C270.318 200.355 270.65 200.057 271.077 199.846C271.504 199.635 271.996 199.529 272.554 199.529C273.127 199.529 273.625 199.631 274.05 199.834C274.477 200.034 274.809 200.313 275.046 200.67C275.283 201.027 275.401 201.435 275.401 201.896C275.401 202.199 275.341 202.497 275.222 202.791C275.104 203.085 274.895 203.412 274.593 203.771C274.291 204.128 273.865 204.557 273.315 205.057L272.147 206.201V206.256H275.507V207.639H269.804ZM279.654 207.748C279.102 207.748 278.61 207.646 278.178 207.443C277.748 207.24 277.407 206.96 277.154 206.603C276.902 206.247 276.77 205.838 276.76 205.377H278.4C278.419 205.687 278.549 205.938 278.791 206.131C279.033 206.324 279.321 206.42 279.654 206.42C279.92 206.42 280.154 206.361 280.357 206.244C280.563 206.124 280.723 205.959 280.838 205.748C280.955 205.534 281.014 205.29 281.014 205.014C281.014 204.732 280.954 204.485 280.834 204.271C280.717 204.058 280.554 203.891 280.346 203.771C280.137 203.652 279.899 203.59 279.631 203.588C279.396 203.588 279.169 203.636 278.947 203.732C278.729 203.829 278.558 203.96 278.436 204.127L276.932 203.857L277.311 199.639H282.201V201.021H278.705L278.498 203.025H278.545C278.686 202.827 278.898 202.663 279.182 202.533C279.465 202.403 279.783 202.338 280.135 202.338C280.617 202.338 281.046 202.451 281.424 202.678C281.801 202.904 282.1 203.215 282.318 203.611C282.537 204.004 282.645 204.458 282.643 204.971C282.645 205.51 282.52 205.989 282.268 206.408C282.018 206.825 281.667 207.153 281.217 207.393C280.769 207.629 280.248 207.748 279.654 207.748Z" fill="#252525"/>
<path d="M280.792 231.319V239.319H279.1V232.925H279.053L277.221 234.073V232.573L279.202 231.319H280.792Z" fill="#B1B1B2"/>
<path d="M153.211 207.639V206.42L156.059 203.783C156.301 203.549 156.504 203.338 156.668 203.15C156.835 202.963 156.961 202.779 157.047 202.6C157.133 202.417 157.176 202.221 157.176 202.01C157.176 201.775 157.123 201.574 157.016 201.404C156.909 201.232 156.763 201.101 156.578 201.01C156.393 200.916 156.184 200.869 155.949 200.869C155.705 200.869 155.491 200.919 155.309 201.018C155.126 201.116 154.986 201.258 154.887 201.443C154.788 201.628 154.738 201.848 154.738 202.103H153.133C153.133 201.58 153.251 201.126 153.488 200.74C153.725 200.355 154.057 200.057 154.484 199.846C154.912 199.635 155.404 199.529 155.961 199.529C156.534 199.529 157.033 199.631 157.457 199.834C157.884 200.034 158.216 200.313 158.453 200.67C158.69 201.027 158.809 201.435 158.809 201.896C158.809 202.199 158.749 202.497 158.629 202.791C158.512 203.085 158.302 203.412 158 203.771C157.698 204.128 157.272 204.557 156.723 205.057L155.555 206.201V206.256H158.914V207.639H153.211ZM160.14 207.639V206.42L162.987 203.783C163.23 203.549 163.433 203.338 163.597 203.15C163.763 202.963 163.89 202.779 163.976 202.6C164.062 202.417 164.105 202.221 164.105 202.01C164.105 201.775 164.051 201.574 163.944 201.404C163.838 201.232 163.692 201.101 163.507 201.01C163.322 200.916 163.112 200.869 162.878 200.869C162.633 200.869 162.42 200.919 162.237 201.018C162.055 201.116 161.915 201.258 161.816 201.443C161.717 201.628 161.667 201.848 161.667 202.103H160.062C160.062 201.58 160.18 201.126 160.417 200.74C160.654 200.355 160.986 200.057 161.413 199.846C161.84 199.635 162.332 199.529 162.89 199.529C163.463 199.529 163.961 199.631 164.386 199.834C164.813 200.034 165.145 200.313 165.382 200.67C165.619 201.027 165.737 201.435 165.737 201.896C165.737 202.199 165.678 202.497 165.558 202.791C165.441 203.085 165.231 203.412 164.929 203.771C164.627 204.128 164.201 204.557 163.651 205.057L162.484 206.201V206.256H165.843V207.639H160.14Z" fill="#252525"/>
<path d="M156.692 164.681V172.681H155V166.286H154.953L153.121 167.435V165.935L155.102 164.681H156.692ZM161.515 172.79C160.963 172.79 160.47 172.688 160.038 172.485C159.609 172.282 159.267 172.002 159.015 171.646C158.762 171.289 158.631 170.88 158.62 170.419H160.261C160.279 170.729 160.409 170.98 160.651 171.173C160.894 171.366 161.181 171.462 161.515 171.462C161.78 171.462 162.015 171.403 162.218 171.286C162.424 171.166 162.584 171.001 162.698 170.79C162.816 170.576 162.874 170.332 162.874 170.056C162.874 169.774 162.814 169.527 162.694 169.313C162.577 169.1 162.415 168.933 162.206 168.813C161.998 168.694 161.76 168.632 161.491 168.63C161.257 168.63 161.029 168.678 160.808 168.774C160.589 168.871 160.418 169.002 160.296 169.169L158.792 168.899L159.171 164.681H164.062V166.063H160.566L160.359 168.067H160.405C160.546 167.869 160.758 167.705 161.042 167.575C161.326 167.445 161.644 167.38 161.995 167.38C162.477 167.38 162.907 167.493 163.284 167.72C163.662 167.946 163.96 168.257 164.179 168.653C164.398 169.047 164.506 169.5 164.503 170.013C164.506 170.552 164.381 171.031 164.128 171.45C163.878 171.867 163.528 172.195 163.077 172.435C162.629 172.672 162.109 172.79 161.515 172.79Z" fill="#252525"/>
<path d="M156.692 128.63V136.63H155V130.236H154.953L153.121 131.384V129.884L155.102 128.63H156.692ZM161.73 136.806C161.058 136.803 160.48 136.638 159.995 136.31C159.513 135.982 159.142 135.507 158.882 134.884C158.624 134.262 158.497 133.513 158.499 132.638C158.499 131.766 158.628 131.022 158.886 130.408C159.146 129.793 159.517 129.326 159.999 129.005C160.484 128.682 161.06 128.521 161.73 128.521C162.399 128.521 162.974 128.682 163.456 129.005C163.941 129.328 164.313 129.797 164.573 130.411C164.834 131.023 164.963 131.766 164.96 132.638C164.96 133.516 164.83 134.266 164.569 134.888C164.312 135.51 163.942 135.986 163.46 136.314C162.978 136.642 162.401 136.806 161.73 136.806ZM161.73 135.404C162.188 135.404 162.554 135.173 162.827 134.712C163.101 134.251 163.236 133.56 163.234 132.638C163.234 132.031 163.171 131.526 163.046 131.122C162.924 130.719 162.749 130.415 162.523 130.212C162.299 130.009 162.034 129.908 161.73 129.908C161.274 129.908 160.909 130.135 160.636 130.591C160.362 131.047 160.224 131.729 160.222 132.638C160.222 133.253 160.283 133.766 160.405 134.177C160.53 134.586 160.706 134.893 160.933 135.099C161.159 135.302 161.425 135.404 161.73 135.404Z" fill="#252525"/>
<path d="M158.714 101.782C158.131 101.782 157.611 101.681 157.155 101.481C156.702 101.278 156.344 100.999 156.081 100.645C155.821 100.288 155.687 99.8767 155.679 99.4105H157.382C157.392 99.6058 157.456 99.7777 157.573 99.9261C157.693 100.072 157.852 100.185 158.05 100.266C158.248 100.347 158.47 100.387 158.718 100.387C158.976 100.387 159.204 100.342 159.401 100.25C159.599 100.159 159.754 100.033 159.866 99.8715C159.978 99.71 160.034 99.5238 160.034 99.3129C160.034 99.0993 159.974 98.9105 159.855 98.7465C159.737 98.5798 159.568 98.4496 159.347 98.3558C159.128 98.2621 158.868 98.2152 158.566 98.2152H157.819V96.973H158.566C158.821 96.973 159.046 96.9288 159.241 96.8402C159.439 96.7517 159.593 96.6293 159.702 96.473C159.812 96.3142 159.866 96.1293 159.866 95.9183C159.866 95.7178 159.818 95.542 159.722 95.391C159.628 95.2373 159.495 95.1176 159.323 95.0316C159.154 94.9457 158.956 94.9027 158.73 94.9027C158.5 94.9027 158.291 94.9444 158.101 95.0277C157.911 95.1084 157.758 95.2243 157.644 95.3754C157.529 95.5264 157.468 95.7035 157.46 95.9066H155.839C155.847 95.4457 155.978 95.0394 156.234 94.6879C156.489 94.3363 156.832 94.0616 157.265 93.8636C157.7 93.6631 158.191 93.5629 158.737 93.5629C159.29 93.5629 159.773 93.6631 160.187 93.8636C160.601 94.0642 160.922 94.335 161.151 94.6761C161.383 95.0147 161.498 95.3949 161.495 95.8168C161.498 96.2647 161.359 96.6384 161.077 96.9379C160.799 97.2373 160.435 97.4274 159.987 97.5082V97.5707C160.576 97.6462 161.024 97.8506 161.331 98.184C161.641 98.5147 161.795 98.9288 161.792 99.4261C161.795 99.8819 161.663 100.287 161.398 100.641C161.135 100.995 160.771 101.274 160.308 101.477C159.844 101.68 159.313 101.782 158.714 101.782Z" fill="#7C7C7C"/>
<path d="M153.211 239.319V238.101L156.059 235.464C156.301 235.229 156.504 235.018 156.668 234.831C156.835 234.643 156.961 234.46 157.047 234.28C157.133 234.098 157.176 233.901 157.176 233.69C157.176 233.456 157.123 233.254 157.016 233.085C156.909 232.913 156.763 232.782 156.578 232.69C156.393 232.597 156.184 232.55 155.949 232.55C155.705 232.55 155.491 232.599 155.309 232.698C155.126 232.797 154.986 232.939 154.887 233.124C154.788 233.309 154.738 233.529 154.738 233.784H153.133C153.133 233.261 153.251 232.806 153.488 232.421C153.725 232.035 154.057 231.737 154.484 231.526C154.912 231.315 155.404 231.21 155.961 231.21C156.534 231.21 157.033 231.311 157.457 231.515C157.884 231.715 158.216 231.994 158.453 232.351C158.69 232.707 158.809 233.116 158.809 233.577C158.809 233.879 158.749 234.177 158.629 234.472C158.512 234.766 158.302 235.093 158 235.452C157.698 235.809 157.272 236.237 156.723 236.737L155.555 237.882V237.936H158.914V239.319H153.211ZM163.034 231.21C163.446 231.21 163.842 231.279 164.222 231.417C164.605 231.555 164.946 231.775 165.245 232.077C165.547 232.379 165.786 232.78 165.96 233.28C166.137 233.778 166.227 234.388 166.23 235.112C166.23 235.792 166.153 236.399 165.999 236.933C165.848 237.464 165.631 237.916 165.347 238.288C165.063 238.66 164.72 238.944 164.319 239.14C163.918 239.332 163.47 239.429 162.976 239.429C162.442 239.429 161.97 239.326 161.562 239.12C161.153 238.912 160.823 238.629 160.573 238.272C160.326 237.913 160.176 237.509 160.124 237.061H161.792C161.857 237.353 161.994 237.58 162.202 237.741C162.411 237.9 162.668 237.979 162.976 237.979C163.497 237.979 163.892 237.753 164.163 237.3C164.434 236.844 164.571 236.22 164.573 235.429H164.519C164.399 235.663 164.237 235.865 164.034 236.034C163.831 236.201 163.598 236.33 163.335 236.421C163.075 236.512 162.797 236.558 162.503 236.558C162.032 236.558 161.611 236.447 161.241 236.226C160.872 236.004 160.58 235.699 160.366 235.311C160.153 234.923 160.046 234.481 160.046 233.983C160.043 233.447 160.167 232.969 160.417 232.55C160.667 232.13 161.016 231.802 161.464 231.565C161.915 231.326 162.438 231.207 163.034 231.21ZM163.046 232.538C162.783 232.538 162.549 232.601 162.343 232.726C162.14 232.851 161.978 233.018 161.859 233.229C161.741 233.44 161.684 233.676 161.687 233.936C161.687 234.199 161.744 234.436 161.859 234.647C161.976 234.856 162.135 235.022 162.335 235.147C162.538 235.27 162.77 235.331 163.03 235.331C163.226 235.331 163.407 235.295 163.573 235.222C163.74 235.149 163.885 235.048 164.007 234.921C164.132 234.791 164.23 234.641 164.3 234.472C164.37 234.302 164.405 234.123 164.405 233.933C164.403 233.68 164.343 233.448 164.226 233.237C164.109 233.026 163.947 232.857 163.741 232.729C163.536 232.602 163.304 232.538 163.046 232.538Z" fill="#252525"/>
<path d="M71.0352 64.3008C71.0039 63.9857 70.8698 63.7409 70.6328 63.5664C70.3958 63.3919 70.0742 63.3047 69.668 63.3047C69.3919 63.3047 69.1589 63.3437 68.9688 63.4219C68.7786 63.4974 68.6328 63.6029 68.5313 63.7383C68.4323 63.8737 68.3828 64.0273 68.3828 64.1992C68.3776 64.3424 68.4076 64.4674 68.4727 64.5742C68.5404 64.681 68.6328 64.7734 68.75 64.8516C68.8672 64.9271 69.0026 64.9935 69.1562 65.0508C69.3099 65.1055 69.474 65.1523 69.6484 65.1914L70.3672 65.3633C70.7161 65.4414 71.0365 65.5456 71.3281 65.6758C71.6198 65.806 71.8724 65.9661 72.0859 66.1562C72.2995 66.3464 72.4648 66.5703 72.582 66.8281C72.7018 67.0859 72.763 67.3815 72.7656 67.7148C72.763 68.2044 72.638 68.6289 72.3906 68.9883C72.1458 69.3451 71.7917 69.6224 71.3281 69.8203C70.8672 70.0156 70.3112 70.1133 69.6602 70.1133C69.0143 70.1133 68.4518 70.0143 67.9727 69.8164C67.4961 69.6185 67.1237 69.3255 66.8555 68.9375C66.5898 68.5469 66.4505 68.0638 66.4375 67.4883H68.0742C68.0924 67.7565 68.1693 67.9805 68.3047 68.1602C68.4427 68.3372 68.6263 68.4714 68.8555 68.5625C69.0872 68.651 69.349 68.6953 69.6406 68.6953C69.9271 68.6953 70.1758 68.6536 70.3867 68.5703C70.6003 68.487 70.7656 68.3711 70.8828 68.2227C71 68.0742 71.0586 67.9036 71.0586 67.7109C71.0586 67.5312 71.0052 67.3802 70.8984 67.2578C70.7943 67.1354 70.6406 67.0312 70.4375 66.9453C70.237 66.8594 69.9909 66.7812 69.6992 66.7109L68.8281 66.4922C68.1536 66.3281 67.6211 66.0716 67.2305 65.7227C66.8398 65.3737 66.6458 64.9036 66.6484 64.3125C66.6458 63.8281 66.7747 63.4049 67.0352 63.043C67.2982 62.681 67.6589 62.3984 68.1172 62.1953C68.5755 61.9922 69.0964 61.8906 69.6797 61.8906C70.2734 61.8906 70.7917 61.9922 71.2344 62.1953C71.6797 62.3984 72.026 62.681 72.2734 63.043C72.5208 63.4049 72.6484 63.8242 72.6562 64.3008H71.0352ZM76.6064 70.1172C75.9893 70.1172 75.458 69.9922 75.0127 69.7422C74.57 69.4896 74.2288 69.1328 73.9893 68.6719C73.7497 68.2083 73.6299 67.6602 73.6299 67.0273C73.6299 66.4102 73.7497 65.8685 73.9893 65.4023C74.2288 64.9362 74.5661 64.5729 75.001 64.3125C75.4385 64.0521 75.9515 63.9219 76.54 63.9219C76.9359 63.9219 77.3044 63.9857 77.6455 64.1133C77.9893 64.2383 78.2887 64.4271 78.5439 64.6797C78.8018 64.9323 79.0023 65.25 79.1455 65.6328C79.2887 66.013 79.3604 66.4583 79.3604 66.9687V67.4258H74.2939V66.3945H77.7939C77.7939 66.1549 77.7419 65.9427 77.6377 65.7578C77.5335 65.5729 77.389 65.4284 77.2041 65.3242C77.0218 65.2174 76.8096 65.1641 76.5674 65.1641C76.3148 65.1641 76.0908 65.2227 75.8955 65.3398C75.7028 65.4544 75.5518 65.6094 75.4424 65.8047C75.333 65.9974 75.277 66.2122 75.2744 66.4492V67.4297C75.2744 67.7266 75.3291 67.9831 75.4385 68.1992C75.5505 68.4154 75.708 68.582 75.9111 68.6992C76.1143 68.8164 76.3551 68.875 76.6338 68.875C76.8187 68.875 76.988 68.849 77.1416 68.7969C77.2952 68.7448 77.4268 68.6667 77.5361 68.5625C77.6455 68.4583 77.7288 68.3307 77.7861 68.1797L79.3252 68.2812C79.2471 68.651 79.0869 68.974 78.8447 69.25C78.6051 69.5234 78.2952 69.737 77.915 69.8906C77.5374 70.0417 77.1012 70.1172 76.6064 70.1172ZM83.1494 72.375C82.6104 72.375 82.1481 72.3008 81.7627 72.1523C81.3799 72.0065 81.0752 71.8073 80.8486 71.5547C80.6221 71.3021 80.4749 71.0182 80.4072 70.7031L81.9463 70.4961C81.9932 70.6159 82.0674 70.7279 82.1689 70.832C82.2705 70.9362 82.4046 71.0195 82.5713 71.082C82.7406 71.1471 82.9463 71.1797 83.1885 71.1797C83.5505 71.1797 83.8486 71.0911 84.083 70.9141C84.32 70.7396 84.4385 70.4466 84.4385 70.0352V68.9375H84.3682C84.2952 69.1042 84.1859 69.2617 84.04 69.4102C83.8942 69.5586 83.7067 69.6797 83.4775 69.7734C83.2484 69.8672 82.9749 69.9141 82.6572 69.9141C82.2067 69.9141 81.7965 69.8099 81.4268 69.6016C81.0596 69.3906 80.7666 69.069 80.5479 68.6367C80.3317 68.2018 80.2236 67.6523 80.2236 66.9883C80.2236 66.3086 80.3343 65.7409 80.5557 65.2852C80.777 64.8294 81.0713 64.4883 81.4385 64.2617C81.8083 64.0352 82.2132 63.9219 82.6533 63.9219C82.9893 63.9219 83.2705 63.9792 83.4971 64.0938C83.7236 64.2057 83.9059 64.3464 84.0439 64.5156C84.1846 64.6823 84.2926 64.8464 84.3682 65.0078H84.4307V64H86.083V70.0586C86.083 70.569 85.958 70.9961 85.708 71.3398C85.458 71.6836 85.1117 71.9414 84.6689 72.1133C84.2288 72.2878 83.7223 72.375 83.1494 72.375ZM83.1846 68.6641C83.4528 68.6641 83.6794 68.5977 83.8643 68.4648C84.0518 68.3294 84.195 68.1367 84.2939 67.8867C84.3955 67.6341 84.4463 67.332 84.4463 66.9805C84.4463 66.6289 84.3968 66.3242 84.2979 66.0664C84.1989 65.806 84.0557 65.6042 83.8682 65.4609C83.6807 65.3177 83.4528 65.2461 83.1846 65.2461C82.9111 65.2461 82.6807 65.3203 82.4932 65.4687C82.3057 65.6146 82.1637 65.8177 82.0674 66.0781C81.971 66.3385 81.9229 66.6393 81.9229 66.9805C81.9229 67.3268 81.971 67.6263 82.0674 67.8789C82.1663 68.1289 82.3083 68.3229 82.4932 68.4609C82.6807 68.5964 82.9111 68.6641 83.1846 68.6641Z" fill="#252525"/>
<path d="M231.035 64.3008C231.004 63.9857 230.87 63.7409 230.633 63.5664C230.396 63.3919 230.074 63.3047 229.668 63.3047C229.392 63.3047 229.159 63.3437 228.969 63.4219C228.779 63.4974 228.633 63.6029 228.531 63.7383C228.432 63.8737 228.383 64.0273 228.383 64.1992C228.378 64.3424 228.408 64.4674 228.473 64.5742C228.54 64.681 228.633 64.7734 228.75 64.8516C228.867 64.9271 229.003 64.9935 229.156 65.0508C229.31 65.1055 229.474 65.1523 229.648 65.1914L230.367 65.3633C230.716 65.4414 231.036 65.5456 231.328 65.6758C231.62 65.806 231.872 65.9661 232.086 66.1562C232.299 66.3464 232.465 66.5703 232.582 66.8281C232.702 67.0859 232.763 67.3815 232.766 67.7148C232.763 68.2044 232.638 68.6289 232.391 68.9883C232.146 69.3451 231.792 69.6224 231.328 69.8203C230.867 70.0156 230.311 70.1133 229.66 70.1133C229.014 70.1133 228.452 70.0143 227.973 69.8164C227.496 69.6185 227.124 69.3255 226.855 68.9375C226.59 68.5469 226.451 68.0638 226.437 67.4883H228.074C228.092 67.7565 228.169 67.9805 228.305 68.1602C228.443 68.3372 228.626 68.4714 228.855 68.5625C229.087 68.651 229.349 68.6953 229.641 68.6953C229.927 68.6953 230.176 68.6536 230.387 68.5703C230.6 68.487 230.766 68.3711 230.883 68.2227C231 68.0742 231.059 67.9036 231.059 67.7109C231.059 67.5312 231.005 67.3802 230.898 67.2578C230.794 67.1354 230.641 67.0312 230.438 66.9453C230.237 66.8594 229.991 66.7812 229.699 66.7109L228.828 66.4922C228.154 66.3281 227.621 66.0716 227.23 65.7227C226.84 65.3737 226.646 64.9036 226.648 64.3125C226.646 63.8281 226.775 63.4049 227.035 63.043C227.298 62.681 227.659 62.3984 228.117 62.1953C228.576 61.9922 229.096 61.8906 229.68 61.8906C230.273 61.8906 230.792 61.9922 231.234 62.1953C231.68 62.3984 232.026 62.681 232.273 63.043C232.521 63.4049 232.648 63.8242 232.656 64.3008H231.035ZM236.606 70.1172C235.989 70.1172 235.458 69.9922 235.013 69.7422C234.57 69.4896 234.229 69.1328 233.989 68.6719C233.75 68.2083 233.63 67.6602 233.63 67.0273C233.63 66.4102 233.75 65.8685 233.989 65.4023C234.229 64.9362 234.566 64.5729 235.001 64.3125C235.438 64.0521 235.951 63.9219 236.54 63.9219C236.936 63.9219 237.304 63.9857 237.646 64.1133C237.989 64.2383 238.289 64.4271 238.544 64.6797C238.802 64.9323 239.002 65.25 239.146 65.6328C239.289 66.013 239.36 66.4583 239.36 66.9687V67.4258H234.294V66.3945H237.794C237.794 66.1549 237.742 65.9427 237.638 65.7578C237.534 65.5729 237.389 65.4284 237.204 65.3242C237.022 65.2174 236.81 65.1641 236.567 65.1641C236.315 65.1641 236.091 65.2227 235.896 65.3398C235.703 65.4544 235.552 65.6094 235.442 65.8047C235.333 65.9974 235.277 66.2122 235.274 66.4492V67.4297C235.274 67.7266 235.329 67.9831 235.438 68.1992C235.55 68.4154 235.708 68.582 235.911 68.6992C236.114 68.8164 236.355 68.875 236.634 68.875C236.819 68.875 236.988 68.849 237.142 68.7969C237.295 68.7448 237.427 68.6667 237.536 68.5625C237.646 68.4583 237.729 68.3307 237.786 68.1797L239.325 68.2812C239.247 68.651 239.087 68.974 238.845 69.25C238.605 69.5234 238.295 69.737 237.915 69.8906C237.537 70.0417 237.101 70.1172 236.606 70.1172ZM241.729 64L242.831 66.0977L243.96 64H245.667L243.929 67L245.714 70H244.015L242.831 67.9258L241.667 70H239.948L241.729 67L240.011 64H241.729Z" fill="#252525"/>
<path d="M151.715 67.2188H153.152L153.875 68.1484L154.586 68.9766L155.926 70.6563H154.348L153.426 69.5234L152.953 68.8516L151.715 67.2188ZM156.047 66C156.047 66.8724 155.882 67.6146 155.551 68.2266C155.223 68.8385 154.775 69.306 154.207 69.6289C153.642 69.9492 153.007 70.1094 152.301 70.1094C151.59 70.1094 150.952 69.9479 150.387 69.625C149.822 69.3021 149.375 68.8346 149.047 68.2227C148.719 67.6107 148.555 66.8698 148.555 66C148.555 65.1276 148.719 64.3854 149.047 63.7734C149.375 63.1615 149.822 62.6953 150.387 62.375C150.952 62.0521 151.59 61.8906 152.301 61.8906C153.007 61.8906 153.642 62.0521 154.207 62.375C154.775 62.6953 155.223 63.1615 155.551 63.7734C155.882 64.3854 156.047 65.1276 156.047 66ZM154.332 66C154.332 65.4349 154.247 64.9583 154.078 64.5703C153.911 64.1823 153.676 63.888 153.371 63.6875C153.066 63.487 152.71 63.3867 152.301 63.3867C151.892 63.3867 151.535 63.487 151.23 63.6875C150.926 63.888 150.689 64.1823 150.52 64.5703C150.353 64.9583 150.27 65.4349 150.27 66C150.27 66.5651 150.353 67.0417 150.52 67.4297C150.689 67.8177 150.926 68.112 151.23 68.3125C151.535 68.513 151.892 68.6133 152.301 68.6133C152.71 68.6133 153.066 68.513 153.371 68.3125C153.676 68.112 153.911 67.8177 154.078 67.4297C154.247 67.0417 154.332 66.5651 154.332 66ZM161.116 67.4453V64H162.78V70H161.183V68.9102H161.12C160.985 69.2617 160.759 69.5443 160.444 69.7578C160.132 69.9714 159.75 70.0781 159.3 70.0781C158.899 70.0781 158.546 69.987 158.241 69.8047C157.937 69.6224 157.698 69.3633 157.526 69.0273C157.357 68.6914 157.271 68.2891 157.269 67.8203V64H158.933V67.5234C158.935 67.8776 159.03 68.1576 159.218 68.3633C159.405 68.569 159.657 68.6719 159.972 68.6719C160.172 68.6719 160.36 68.6263 160.534 68.5352C160.709 68.4414 160.849 68.3034 160.956 68.1211C161.065 67.9388 161.119 67.7135 161.116 67.4453ZM165.822 70.1133C165.439 70.1133 165.098 70.0469 164.799 69.9141C164.499 69.7786 164.262 69.5794 164.088 69.3164C163.916 69.0508 163.83 68.7201 163.83 68.3242C163.83 67.9909 163.891 67.7109 164.014 67.4844C164.136 67.2578 164.303 67.0755 164.514 66.9375C164.725 66.7995 164.964 66.6953 165.232 66.625C165.503 66.5547 165.787 66.5052 166.084 66.4766C166.433 66.4401 166.714 66.4062 166.928 66.375C167.141 66.3411 167.296 66.2917 167.393 66.2266C167.489 66.1615 167.537 66.0651 167.537 65.9375V65.9141C167.537 65.6667 167.459 65.4753 167.303 65.3398C167.149 65.2044 166.93 65.1367 166.646 65.1367C166.347 65.1367 166.109 65.2031 165.932 65.3359C165.755 65.4661 165.637 65.6302 165.58 65.8281L164.041 65.7031C164.119 65.3385 164.273 65.0234 164.502 64.7578C164.731 64.4896 165.027 64.2839 165.389 64.1406C165.753 63.9948 166.175 63.9219 166.654 63.9219C166.988 63.9219 167.307 63.9609 167.611 64.0391C167.919 64.1172 168.191 64.2383 168.428 64.4023C168.667 64.5664 168.856 64.7773 168.994 65.0352C169.132 65.2904 169.201 65.5964 169.201 65.9531V70H167.623V69.168H167.576C167.48 69.3555 167.351 69.5208 167.189 69.6641C167.028 69.8047 166.834 69.9154 166.607 69.9961C166.381 70.0742 166.119 70.1133 165.822 70.1133ZM166.299 68.9648C166.544 68.9648 166.76 68.9167 166.947 68.8203C167.135 68.7214 167.282 68.5885 167.389 68.4219C167.495 68.2552 167.549 68.0664 167.549 67.8555V67.2188C167.497 67.2526 167.425 67.2839 167.334 67.3125C167.245 67.3385 167.145 67.3633 167.033 67.3867C166.921 67.4076 166.809 67.4271 166.697 67.4453C166.585 67.4609 166.484 67.4753 166.393 67.4883C166.197 67.5169 166.027 67.5625 165.881 67.625C165.735 67.6875 165.622 67.7721 165.541 67.8789C165.46 67.9831 165.42 68.1133 165.42 68.2695C165.42 68.4961 165.502 68.6693 165.666 68.7891C165.833 68.9062 166.044 68.9648 166.299 68.9648Z" fill="#252525"/>
<path d="M240.241 35.8392L234.55 29.6378L245.932 29.6378L240.241 35.8392Z" fill="#041832"/>
<path d="M170.77 27.2912L176.461 33.4926L165.079 33.4926L170.77 27.2912Z" fill="#041832"/>
<path d="M77.6599 25.1215H79.9355L82.3389 30.9851H82.4411L84.8445 25.1215H87.1201V33.8488H85.3303V28.1684H85.2579L82.9994 33.8061H81.7806L79.5221 28.1471H79.4497V33.8488H77.6599V25.1215ZM90.4727 33.9723C90.0551 33.9723 89.683 33.8999 89.3563 33.755C89.0296 33.6073 88.771 33.3899 88.5807 33.103C88.3932 32.8132 88.2994 32.4524 88.2994 32.0206C88.2994 31.657 88.3662 31.3516 88.4997 31.1044C88.6333 30.8573 88.8151 30.6584 89.0452 30.5078C89.2753 30.3573 89.5367 30.2436 89.8293 30.1669C90.1247 30.0902 90.4344 30.0363 90.7583 30.005C91.1389 29.9652 91.4458 29.9283 91.6787 29.8942C91.9117 29.8573 92.0807 29.8033 92.1858 29.7323C92.2909 29.6613 92.3435 29.5561 92.3435 29.4169V29.3914C92.3435 29.1215 92.2583 28.9127 92.0878 28.7649C91.9202 28.6172 91.6816 28.5434 91.3719 28.5434C91.0452 28.5434 90.7852 28.6158 90.5921 28.7607C90.3989 28.9027 90.271 29.0817 90.2085 29.2976L88.5296 29.1613C88.6148 28.7635 88.7824 28.4198 89.0324 28.13C89.2824 27.8374 89.6048 27.613 89.9997 27.4567C90.3975 27.2976 90.8577 27.2181 91.3804 27.2181C91.7441 27.2181 92.0921 27.2607 92.4244 27.3459C92.7597 27.4311 93.0566 27.5632 93.3151 27.7422C93.5764 27.9212 93.7824 28.1513 93.933 28.4326C94.0835 28.711 94.1588 29.0448 94.1588 29.434V33.8488H92.4372V32.9411H92.3861C92.281 33.1456 92.1404 33.326 91.9642 33.4823C91.7881 33.6357 91.5764 33.7564 91.3293 33.8445C91.0821 33.9297 90.7966 33.9723 90.4727 33.9723ZM90.9926 32.7195C91.2597 32.7195 91.4955 32.6669 91.7 32.5618C91.9046 32.4539 92.0651 32.309 92.1816 32.1272C92.298 31.9453 92.3563 31.7394 92.3563 31.5093V30.8147C92.2994 30.8516 92.2213 30.8857 92.1219 30.9169C92.0253 30.9453 91.9159 30.9723 91.7938 30.9979C91.6716 31.0206 91.5494 31.0419 91.4273 31.0618C91.3051 31.0789 91.1943 31.0945 91.0949 31.1087C90.8818 31.1399 90.6958 31.1897 90.5367 31.2578C90.3776 31.326 90.254 31.4184 90.1659 31.5348C90.0779 31.6485 90.0338 31.7905 90.0338 31.961C90.0338 32.2081 90.1233 32.3971 90.3023 32.5277C90.4841 32.6556 90.7142 32.7195 90.9926 32.7195ZM95.5672 33.8488V27.3033H97.3825V33.8488H95.5672ZM96.4791 26.4596C96.2093 26.4596 95.9777 26.3701 95.7845 26.1911C95.5942 26.0093 95.499 25.7919 95.499 25.5391C95.499 25.2891 95.5942 25.0746 95.7845 24.8956C95.9777 24.7138 96.2093 24.6229 96.4791 24.6229C96.749 24.6229 96.9791 24.7138 97.1695 24.8956C97.3627 25.0746 97.4593 25.2891 97.4593 25.5391C97.4593 25.7919 97.3627 26.0093 97.1695 26.1911C96.9791 26.3701 96.749 26.4596 96.4791 26.4596ZM101.794 33.9766C101.132 33.9766 100.56 33.836 100.077 33.5547C99.5967 33.2706 99.2259 32.8757 98.9646 32.3701C98.7032 31.8615 98.5725 31.2721 98.5725 30.6016C98.5725 29.9255 98.7032 29.3346 98.9646 28.8289C99.2259 28.3203 99.5967 27.9255 100.077 27.6442C100.56 27.3601 101.132 27.2181 101.794 27.2181C102.456 27.2181 103.027 27.3601 103.507 27.6442C103.99 27.9255 104.362 28.3203 104.624 28.8289C104.885 29.3346 105.016 29.9255 105.016 30.6016C105.016 31.2721 104.885 31.8615 104.624 32.3701C104.362 32.8757 103.99 33.2706 103.507 33.5547C103.027 33.836 102.456 33.9766 101.794 33.9766ZM101.803 32.5703C102.104 32.5703 102.355 32.4851 102.557 32.3147C102.759 32.1414 102.911 31.9056 103.013 31.6073C103.118 31.309 103.171 30.9695 103.171 30.5888C103.171 30.2081 103.118 29.8686 103.013 29.5703C102.911 29.2721 102.759 29.0363 102.557 28.863C102.355 28.6897 102.104 28.603 101.803 28.603C101.499 28.603 101.243 28.6897 101.036 28.863C100.831 29.0363 100.676 29.2721 100.571 29.5703C100.469 29.8686 100.418 30.2081 100.418 30.5888C100.418 30.9695 100.469 31.309 100.571 31.6073C100.676 31.9056 100.831 32.1414 101.036 32.3147C101.243 32.4851 101.499 32.5703 101.803 32.5703Z" fill="black"/>
</svg>
