<svg width="29" height="25" viewBox="0 0 29 25" fill="none" xmlns="http://www.w3.org/2000/svg">
<path d="M17.2188 21.4286H13.5938C13.3534 21.4286 13.1229 21.5226 12.953 21.6901C12.783 21.8575 12.6875 22.0846 12.6875 22.3214V24.1071C12.6875 24.3439 12.783 24.571 12.953 24.7385C13.1229 24.9059 13.3534 25 13.5938 25H17.2188C17.4591 25 17.6896 24.9059 17.8596 24.7385C18.0295 24.571 18.125 24.3439 18.125 24.1071V22.3214C18.125 22.0846 18.0295 21.8575 17.8596 21.6901C17.6896 21.5226 17.4591 21.4286 17.2188 21.4286ZM9.96878 17.8571H7.25003V0.892857C7.25003 0.656057 7.15455 0.428955 6.9846 0.261512C6.81464 0.0940686 6.58414 0 6.34378 0H4.53129C4.29093 0 4.06043 0.0940686 3.89047 0.261512C3.72052 0.428955 3.62504 0.656057 3.62504 0.892857V17.8571H0.906292C0.102563 17.8571 -0.304116 18.8192 0.266821 19.3811L4.79806 24.7383C4.968 24.9056 5.19842 24.9996 5.43867 24.9996C5.67892 24.9996 5.90934 24.9056 6.07927 24.7383L10.6105 19.3811C11.1781 18.8203 10.7742 17.8571 9.96878 17.8571ZM24.4688 7.14286H13.5938C13.3534 7.14286 13.1229 7.23693 12.953 7.40437C12.783 7.57181 12.6875 7.79891 12.6875 8.03571V9.82143C12.6875 10.0582 12.783 10.2853 12.953 10.4528C13.1229 10.6202 13.3534 10.7143 13.5938 10.7143H24.4688C24.7091 10.7143 24.9396 10.6202 25.1096 10.4528C25.2795 10.2853 25.375 10.0582 25.375 9.82143V8.03571C25.375 7.79891 25.2795 7.57181 25.1096 7.40437C24.9396 7.23693 24.7091 7.14286 24.4688 7.14286ZM20.8438 14.2857H13.5938C13.3534 14.2857 13.1229 14.3798 12.953 14.5472C12.783 14.7147 12.6875 14.9418 12.6875 15.1786V16.9643C12.6875 17.2011 12.783 17.4282 12.953 17.5956C13.1229 17.7631 13.3534 17.8571 13.5938 17.8571H20.8438C21.0841 17.8571 21.3146 17.7631 21.4846 17.5956C21.6545 17.4282 21.75 17.2011 21.75 16.9643V15.1786C21.75 14.9418 21.6545 14.7147 21.4846 14.5472C21.3146 14.3798 21.0841 14.2857 20.8438 14.2857ZM28.0937 0H13.5938C13.3534 0 13.1229 0.0940686 12.953 0.261512C12.783 0.428955 12.6875 0.656057 12.6875 0.892857V2.67857C12.6875 2.91537 12.783 3.14247 12.953 3.30992C13.1229 3.47736 13.3534 3.57143 13.5938 3.57143H28.0937C28.3341 3.57143 28.5646 3.47736 28.7346 3.30992C28.9045 3.14247 29 2.91537 29 2.67857V0.892857C29 0.656057 28.9045 0.428955 28.7346 0.261512C28.5646 0.0940686 28.3341 0 28.0937 0Z" fill="#144480"/>
</svg>
