<svg width="18" height="23" viewBox="0 0 18 23" fill="none" xmlns="http://www.w3.org/2000/svg">
<path d="M16.9355 4.7168L12.5377 0.314453C12.3355 0.112305 12.0615 0 11.774 0H11.5V5.75H17.25V5.47598C17.25 5.19297 17.1377 4.91895 16.9355 4.7168ZM10.0625 6.10938V0H1.07812C0.480664 0 0 0.480664 0 1.07812V21.9219C0 22.5193 0.480664 23 1.07812 23H16.1719C16.7693 23 17.25 22.5193 17.25 21.9219V7.1875H11.1406C10.5477 7.1875 10.0625 6.70234 10.0625 6.10938ZM2.875 3.23438C2.875 3.03582 3.03582 2.875 3.23438 2.875H6.82812C7.02668 2.875 7.1875 3.03582 7.1875 3.23438V3.95313C7.1875 4.15168 7.02668 4.3125 6.82812 4.3125H3.23438C3.03582 4.3125 2.875 4.15168 2.875 3.95313V3.23438ZM2.875 6.82812V6.10938C2.875 5.91082 3.03582 5.75 3.23438 5.75H6.82812C7.02668 5.75 7.1875 5.91082 7.1875 6.10938V6.82812C7.1875 7.02668 7.02668 7.1875 6.82812 7.1875H3.23438C3.03582 7.1875 2.875 7.02668 2.875 6.82812ZM9.34375 18.6821V19.7656C9.34375 19.9642 9.18293 20.125 8.98438 20.125H8.26562C8.06707 20.125 7.90625 19.9642 7.90625 19.7656V18.6745C7.39908 18.6484 6.90584 18.4714 6.49705 18.1646C6.32186 18.033 6.31287 17.7706 6.47145 17.6193L6.99928 17.1157C7.12371 16.9971 7.30879 16.9917 7.45434 17.0829C7.62818 17.1916 7.82539 17.25 8.03023 17.25H9.29299C9.58498 17.25 9.82307 16.9841 9.82307 16.6575C9.82307 16.3902 9.6609 16.1548 9.4291 16.0856L7.40762 15.4792C6.57252 15.2285 5.98899 14.4271 5.98899 13.53C5.98899 12.4285 6.84475 11.5337 7.9058 11.5054V10.4219C7.9058 10.2233 8.06662 10.0625 8.26518 10.0625H8.98393C9.18248 10.0625 9.3433 10.2233 9.3433 10.4219V11.513C9.85047 11.5391 10.3437 11.7156 10.7525 12.0229C10.9277 12.1545 10.9367 12.4169 10.7781 12.5682L10.2503 13.0718C10.1258 13.1904 9.94076 13.1958 9.79521 13.1046C9.62137 12.9955 9.42416 12.9375 9.21932 12.9375H7.95656C7.66457 12.9375 7.42648 13.2034 7.42648 13.53C7.42648 13.7973 7.58865 14.0327 7.82045 14.1019L9.84193 14.7083C10.677 14.959 11.2606 15.7604 11.2606 16.6575C11.2606 17.7594 10.4048 18.6538 9.34375 18.6821Z" fill="#144480"/>
</svg>
