<svg width="393" height="69" viewBox="0 0 393 69" fill="none" xmlns="http://www.w3.org/2000/svg">
<path d="M0 30C0 13.4315 13.4315 0 30 0H363C379.569 0 393 13.4315 393 30V69H0V30Z" fill="#041832"/>
<path d="M67.8769 26.3393L52.834 38.5429V51.7141C52.834 52.0552 52.9715 52.3822 53.2163 52.6234C53.4611 52.8645 53.7932 53 54.1394 53L63.2825 52.9767C63.6276 52.975 63.958 52.8388 64.2014 52.5978C64.4448 52.3568 64.5814 52.0308 64.5814 51.6908V43.999C64.5814 43.658 64.719 43.3309 64.9638 43.0898C65.2086 42.8486 65.5406 42.7131 65.8869 42.7131H71.1087C71.4549 42.7131 71.787 42.8486 72.0318 43.0898C72.2766 43.3309 72.4141 43.658 72.4141 43.999V51.6852C72.4136 51.8544 72.447 52.022 72.5123 52.1785C72.5777 52.335 72.6738 52.4772 72.7951 52.597C72.9163 52.7169 73.0604 52.812 73.2191 52.8768C73.3777 52.9417 73.5478 52.9751 73.7196 52.9751L82.8594 53C83.2056 53 83.5377 52.8645 83.7825 52.6234C84.0273 52.3822 84.1649 52.0552 84.1649 51.7141V38.5341L69.1252 26.3393C68.9484 26.199 68.7281 26.1224 68.501 26.1224C68.2739 26.1224 68.0537 26.199 67.8769 26.3393ZM91.6386 34.6339L84.8176 29.0959V17.9644C84.8176 17.7086 84.7144 17.4633 84.5308 17.2825C84.3472 17.1016 84.0982 17 83.8385 17H79.2694C79.0097 17 78.7607 17.1016 78.5771 17.2825C78.3935 17.4633 78.2903 17.7086 78.2903 17.9644V23.7998L70.9855 17.88C70.2845 17.3118 69.4048 17.0011 68.497 17.0011C67.5891 17.0011 66.7095 17.3118 66.0084 17.88L45.3553 34.6339C45.2562 34.7146 45.1742 34.8138 45.1139 34.9258C45.0537 35.0377 45.0165 35.1603 45.0044 35.2864C44.9922 35.4125 45.0055 35.5398 45.0433 35.6609C45.0811 35.7819 45.1428 35.8945 45.2248 35.9921L47.3054 38.4835C47.3871 38.5814 47.4877 38.6625 47.6014 38.7221C47.715 38.7817 47.8395 38.8187 47.9676 38.8308C48.0958 38.843 48.2251 38.8302 48.3482 38.793C48.4713 38.7559 48.5858 38.6952 48.6851 38.6145L67.8769 23.0443C68.0537 22.904 68.2739 22.8274 68.501 22.8274C68.7281 22.8274 68.9484 22.904 69.1252 23.0443L88.3179 38.6145C88.417 38.6952 88.5312 38.756 88.6542 38.7932C88.7771 38.8305 88.9063 38.8435 89.0343 38.8316C89.1624 38.8196 89.2868 38.783 89.4005 38.7236C89.5141 38.6643 89.6148 38.5835 89.6967 38.4859L91.7773 35.9945C91.8592 35.8964 91.9206 35.7832 91.958 35.6616C91.9954 35.54 92.008 35.4123 91.9951 35.2858C91.9822 35.1594 91.9441 35.0367 91.8829 34.9248C91.8217 34.813 91.7387 34.7141 91.6386 34.6339Z" fill="white"/>
<path d="M173.656 28.25C174.12 28.25 174.5 27.8703 174.5 27.4062V24.5938C174.5 24.1297 174.12 23.75 173.656 23.75H172.25V20.375C172.25 18.5117 170.738 17 168.875 17H146.375C144.512 17 143 18.5117 143 20.375V49.625C143 51.4883 144.512 53 146.375 53H168.875C170.738 53 172.25 51.4883 172.25 49.625V46.25H173.656C174.12 46.25 174.5 45.8703 174.5 45.4062V42.5938C174.5 42.1297 174.12 41.75 173.656 41.75H172.25V37.25H173.656C174.12 37.25 174.5 36.8703 174.5 36.4062V33.5938C174.5 33.1297 174.12 32.75 173.656 32.75H172.25V28.25H173.656ZM157.625 26C160.107 26 162.125 28.018 162.125 30.5C162.125 32.982 160.107 35 157.625 35C155.143 35 153.125 32.982 153.125 30.5C153.125 28.018 155.143 26 157.625 26ZM165.5 42.65C165.5 43.3953 164.797 44 163.925 44H151.325C150.453 44 149.75 43.3953 149.75 42.65V41.3C149.75 39.0641 151.866 37.25 154.475 37.25H154.827C155.691 37.6086 156.634 37.8125 157.625 37.8125C158.616 37.8125 159.566 37.6086 160.423 37.25H160.775C163.384 37.25 165.5 39.0641 165.5 41.3V42.65Z" fill="white"/>
<path d="M335.508 24.3828L328.624 17.4922C328.308 17.1758 327.879 17 327.429 17H327V26H336V25.5711C336 25.1281 335.824 24.6992 335.508 24.3828ZM324.75 26.5625V17H310.688C309.752 17 309 17.7523 309 18.6875V51.3125C309 52.2477 309.752 53 310.688 53H334.312C335.248 53 336 52.2477 336 51.3125V28.25H326.438C325.509 28.25 324.75 27.4906 324.75 26.5625ZM313.5 22.0625C313.5 21.7517 313.752 21.5 314.062 21.5H319.688C319.998 21.5 320.25 21.7517 320.25 22.0625V23.1875C320.25 23.4983 319.998 23.75 319.688 23.75H314.062C313.752 23.75 313.5 23.4983 313.5 23.1875V22.0625ZM313.5 27.6875V26.5625C313.5 26.2517 313.752 26 314.062 26H319.688C319.998 26 320.25 26.2517 320.25 26.5625V27.6875C320.25 27.9983 319.998 28.25 319.688 28.25H314.062C313.752 28.25 313.5 27.9983 313.5 27.6875ZM323.625 46.2416V47.9375C323.625 48.2483 323.373 48.5 323.062 48.5H321.938C321.627 48.5 321.375 48.2483 321.375 47.9375V46.2296C320.581 46.1888 319.809 45.9118 319.169 45.4316C318.895 45.2255 318.881 44.8149 319.129 44.578L319.955 43.7898C320.15 43.6041 320.44 43.5957 320.668 43.7384C320.94 43.9086 321.248 44 321.569 44H323.546C324.003 44 324.375 43.5837 324.375 43.0726C324.375 42.6542 324.121 42.2858 323.759 42.1775L320.595 41.2283C319.287 40.8359 318.374 39.5816 318.374 38.1774C318.374 36.4534 319.714 35.0527 321.374 35.0084V33.3125C321.374 33.0017 321.626 32.75 321.937 32.75H323.062C323.373 32.75 323.624 33.0017 323.624 33.3125V35.0204C324.418 35.0612 325.19 35.3375 325.83 35.8184C326.104 36.0245 326.118 36.4351 325.87 36.672L325.044 37.4602C324.849 37.6459 324.559 37.6543 324.332 37.5116C324.06 37.3407 323.751 37.25 323.43 37.25H321.454C320.997 37.25 320.624 37.6663 320.624 38.1774C320.624 38.5958 320.878 38.9642 321.241 39.0725L324.405 40.0217C325.712 40.4141 326.625 41.6684 326.625 43.0726C326.625 44.7973 325.286 46.1973 323.625 46.2416Z" fill="white"/>
<path d="M226 49.625C226 51.4883 227.512 53 229.375 53H254.125C255.988 53 257.5 51.4883 257.5 49.625V30.5H226V49.625ZM248.5 35.8438C248.5 35.3797 248.88 35 249.344 35H252.156C252.62 35 253 35.3797 253 35.8438V38.6562C253 39.1203 252.62 39.5 252.156 39.5H249.344C248.88 39.5 248.5 39.1203 248.5 38.6562V35.8438ZM248.5 44.8438C248.5 44.3797 248.88 44 249.344 44H252.156C252.62 44 253 44.3797 253 44.8438V47.6562C253 48.1203 252.62 48.5 252.156 48.5H249.344C248.88 48.5 248.5 48.1203 248.5 47.6562V44.8438ZM239.5 35.8438C239.5 35.3797 239.88 35 240.344 35H243.156C243.62 35 244 35.3797 244 35.8438V38.6562C244 39.1203 243.62 39.5 243.156 39.5H240.344C239.88 39.5 239.5 39.1203 239.5 38.6562V35.8438ZM239.5 44.8438C239.5 44.3797 239.88 44 240.344 44H243.156C243.62 44 244 44.3797 244 44.8438V47.6562C244 48.1203 243.62 48.5 243.156 48.5H240.344C239.88 48.5 239.5 48.1203 239.5 47.6562V44.8438ZM230.5 35.8438C230.5 35.3797 230.88 35 231.344 35H234.156C234.62 35 235 35.3797 235 35.8438V38.6562C235 39.1203 234.62 39.5 234.156 39.5H231.344C230.88 39.5 230.5 39.1203 230.5 38.6562V35.8438ZM230.5 44.8438C230.5 44.3797 230.88 44 231.344 44H234.156C234.62 44 235 44.3797 235 44.8438V47.6562C235 48.1203 234.62 48.5 234.156 48.5H231.344C230.88 48.5 230.5 48.1203 230.5 47.6562V44.8438ZM254.125 21.5H250.75V18.125C250.75 17.5062 250.244 17 249.625 17H247.375C246.756 17 246.25 17.5062 246.25 18.125V21.5H237.25V18.125C237.25 17.5062 236.744 17 236.125 17H233.875C233.256 17 232.75 17.5062 232.75 18.125V21.5H229.375C227.512 21.5 226 23.0117 226 24.875V28.25H257.5V24.875C257.5 23.0117 255.988 21.5 254.125 21.5Z" fill="white"/>
</svg>
