<svg width="59" height="59" viewBox="0 0 59 59" fill="none" xmlns="http://www.w3.org/2000/svg">
<path d="M29.5 0C13.2036 0 0 13.2036 0 29.5C0 45.7964 13.2036 59 29.5 59C45.7964 59 59 45.7964 59 29.5C59 13.2036 45.7964 0 29.5 0ZM29.5 11.4194C35.281 11.4194 39.9677 16.106 39.9677 21.8871C39.9677 27.6681 35.281 32.3548 29.5 32.3548C23.719 32.3548 19.0323 27.6681 19.0323 21.8871C19.0323 16.106 23.719 11.4194 29.5 11.4194ZM29.5 52.3387C22.5175 52.3387 16.2607 49.1746 12.0736 44.2262C14.3099 40.0153 18.6873 37.1129 23.7903 37.1129C24.0758 37.1129 24.3613 37.1605 24.6349 37.2438C26.1812 37.7433 27.799 38.0645 29.5 38.0645C31.201 38.0645 32.8306 37.7433 34.3651 37.2438C34.6387 37.1605 34.9242 37.1129 35.2097 37.1129C40.3127 37.1129 44.6901 40.0153 46.9264 44.2262C42.7393 49.1746 36.4825 52.3387 29.5 52.3387Z" fill="#144480"/>
</svg>
